<svg xmlns="http://www.w3.org/2000/svg" version="1.1" width="100" height="100">
<rect x="0" y="0" width="25" height="25" stroke="none" fill="black" />
<rect x="25" y="0" width="25" height="25" stroke="none" fill="white" />
<rect x="50" y="0" width="25" height="25" stroke="none" fill="black" />
<rect x="75" y="0" width="25" height="25" stroke="none" fill="white" />
<rect x="0" y="25" width="25" height="25" stroke="none" fill="white" />
<rect x="25" y="25" width="25" height="25" stroke="none" fill="black" />
<rect x="50" y="25" width="25" height="25" stroke="none" fill="white" />
<rect x="75" y="25" width="25" height="25" stroke="none" fill="black" />
<rect x="0" y="50" width="25" height="25" stroke="none" fill="black" />
<rect x="25" y="50" width="25" height="25" stroke="none" fill="white" />
<rect x="50" y="50" width="25" height="25" stroke="none" fill="black" />
<rect x="75" y="50" width="25" height="25" stroke="none" fill="white" />
<rect x="0" y="75" width="25" height="25" stroke="none" fill="white" />
<rect x="25" y="75" width="25" height="25" stroke="none" fill="black" />
<rect x="50" y="75" width="25" height="25" stroke="none" fill="white" />
<rect x="75" y="75" width="25" height="25" stroke="none" fill="black" />
</svg>
