<?xml version="1.0" encoding="UTF-8" standalone="no"?>
<!-- Generator: Adobe Illustrator 25.2.3, SVG Export Plug-In . SVG Version: 6.00 Build 0)  -->

<svg
   version="1.1"
   x="0px"
   y="0px"
   viewBox="0 0 249.00001 78.565005"
   xml:space="preserve"
   id="svg101"
   sodipodi:docname="ensimag-grey.svg"
   width="249"
   height="78.565002"
   inkscape:version="1.2.2 (b0a8486541, 2022-12-01)"
   xmlns:inkscape="http://www.inkscape.org/namespaces/inkscape"
   xmlns:sodipodi="http://sodipodi.sourceforge.net/DTD/sodipodi-0.dtd"
   xmlns="http://www.w3.org/2000/svg"
   xmlns:svg="http://www.w3.org/2000/svg"><defs
   id="defs105">
	
	

		
		
		
	
		
		
		
		
		
		
		
	
			
			
			
			
			
			
			
			
		
			
		
			
			
			
			
			
		
				
				
				
				
				
			
					
				
					
				</defs><sodipodi:namedview
   id="namedview103"
   pagecolor="#ffffff"
   bordercolor="#666666"
   borderopacity="1.0"
   inkscape:pageshadow="2"
   inkscape:pageopacity="0.0"
   inkscape:pagecheckerboard="0"
   showgrid="false"
   fit-margin-top="0"
   fit-margin-left="0"
   fit-margin-right="0"
   fit-margin-bottom="0"
   inkscape:zoom="2.2119523"
   inkscape:cx="124.32456"
   inkscape:cy="37.975502"
   inkscape:window-width="2560"
   inkscape:window-height="1379"
   inkscape:window-x="0"
   inkscape:window-y="0"
   inkscape:window-maximized="1"
   inkscape:current-layer="svg101"
   inkscape:showpageshadow="2"
   inkscape:deskcolor="#d1d1d1" />
<style
   type="text/css"
   id="style9">
	.st0{fill:#0FA62C;}
	.st1{fill:#202945;}
	.st2{fill:#E65300;}
	.st3{display:none;}
	.st4{display:inline;fill:none;}
	.st5{display:inline;}
	.st6{fill:none;}
</style>
<path
   class="st0"
   d="m 128.28,15.285 v 4.79 h -8.16 v 14.3 h 7.31 v 4.79 h -7.31 v 14.3 h 8.16 v 4.79 h -13.32 v -42.98 h 13.32 z"
   id="path11"
   style="fill:#999999;fill-opacity:1" /><path
   class="st0"
   d="m 143.2,58.265 v -25.78 c 0,-1.6 -1.17,-2.7 -2.64,-2.7 -1.47,0 -2.64,1.11 -2.64,2.7 v 25.78 h -5.03 v -25.78 c 0,-4.91 3.56,-7.37 7.67,-7.37 4.05,0 7.67,2.46 7.67,7.37 v 25.78 z"
   id="path13"
   style="fill:#999999;fill-opacity:1" /><path
   class="st0"
   d="m 158.07,47.635 v 3.87 c 0,1.66 1.29,2.64 2.64,2.64 1.35,0 2.64,-0.98 2.64,-2.64 v -3.5 c 0,-4.6 -10.31,-4.67 -10.31,-12.71 v -2.82 c 0,-4.85 3.56,-7.37 7.67,-7.37 4.17,0 7.67,2.52 7.67,7.37 v 3.44 h -5.03 v -3.44 c 0,-1.66 -1.29,-2.7 -2.64,-2.7 -1.35,0 -2.64,1.04 -2.64,2.7 v 2.82 c 0,4.48 10.31,4.42 10.31,12.71 v 3.5 c 0,4.54 -3.5,7.31 -7.67,7.31 -4.11,0 -7.67,-2.76 -7.67,-7.31 v -3.87 z"
   id="path15"
   style="fill:#999999;fill-opacity:1" /><path
   class="st0"
   d="m 175.93,14.675 c 1.66,0 2.95,1.23 2.95,2.95 0,1.72 -1.29,2.95 -2.95,2.95 -1.66,0 -2.95,-1.23 -2.95,-2.95 0,-1.72 1.29,-2.95 2.95,-2.95 z m 2.51,11.05 v 32.54 h -5.03 v -32.54 z"
   id="path17"
   style="fill:#999999;fill-opacity:1" /><path
   class="st0"
   d="m 193.53,58.265 v -25.78 c 0,-1.66 -1.17,-2.7 -2.39,-2.7 -1.41,0 -2.39,1.04 -2.39,2.7 v 25.78 h -5.03 v -25.78 c 0,-4.54 3.19,-7.37 7.43,-7.37 1.9,0 3.74,0.55 4.97,1.9 1.23,-1.23 2.95,-1.9 4.85,-1.9 4.18,0 7.43,2.82 7.43,7.37 v 25.78 h -5.03 v -25.78 c 0,-1.66 -1.04,-2.7 -2.39,-2.7 -1.35,0 -2.39,1.04 -2.39,2.7 v 25.78 z"
   id="path19"
   style="fill:#999999;fill-opacity:1" /><path
   class="st0"
   d="m 228.63,51.505 c 0,4.91 -3.62,7.37 -7.67,7.37 -4.11,0 -7.67,-2.46 -7.67,-7.37 v -4.36 c 0,-3.5 2.09,-5.83 4.73,-7 l 5.59,-2.46 v -5.22 c 0,-1.6 -1.17,-2.7 -2.64,-2.7 -1.47,0 -2.64,1.11 -2.64,2.7 v 3.44 h -5.03 v -3.44 c 0,-4.91 3.56,-7.37 7.67,-7.37 4.05,0 7.67,2.46 7.67,7.37 v 19.04 z m -10.32,0 c 0,1.6 1.17,2.7 2.64,2.7 1.47,0 2.64,-1.1 2.64,-2.7 v -8.6 l -3.44,1.53 c -1.04,0.49 -1.84,1.17 -1.84,2.7 z"
   id="path21"
   style="fill:#999999;fill-opacity:1" /><path
   class="st0"
   d="m 241.33,25.105 c -4.11,0 -7.67,2.46 -7.67,7.37 v 19.03 c 0,4.91 3.56,7.37 7.67,7.37 0.92,0 1.81,-0.13 2.64,-0.38 v 4.87 c 0,1.78 -0.98,2.64 -2.09,2.64 -1.11,0 -2.09,-0.86 -2.09,-2.64 v -1.66 h -5.03 v 1.66 c 0,4.48 2.82,7.31 7.12,7.31 4.3,0 7.12,-2.76 7.12,-7.31 v -30.89 c 0,-4.91 -3.62,-7.37 -7.67,-7.37 z m 2.64,26.4 c 0,1.6 -1.17,2.7 -2.64,2.7 -1.47,0 -2.64,-1.1 -2.64,-2.7 v -19.03 c 0,-1.6 1.17,-2.7 2.64,-2.7 1.47,0 2.64,1.11 2.64,2.7 z"
   id="path23"
   style="fill:#999999;fill-opacity:1" /><path
   class="st1"
   d="M 5.99,75.365 C 2.69,75.365 0,72.885 0,69.845 v -6.54 h 2.66 v 6.54 c 0,1.69 1.49,3.07 3.32,3.07 1.83,0 3.32,-1.38 3.32,-3.07 v -6.54 h 2.66 v 6.54 c 0.01,3.04 -2.67,5.52 -5.97,5.52 z"
   id="path27"
   style="fill:#999999;fill-opacity:1" /><polygon
   class="st1"
   points="52.64,172.27 57,179.25 60.08,179.25 52.64,167.36 45.2,179.25 48.28,179.25 "
   id="polygon29"
   transform="translate(-17.23,-104.055)"
   style="fill:#999999;fill-opacity:1" /><path
   class="st1"
   d="m 20.9,75.355 c -1.25,0 -2.51,-0.32 -3.63,-1 -3.07,-1.85 -3.94,-5.66 -1.93,-8.5 2.01,-2.83 6.14,-3.63 9.21,-1.78 l -1.46,2.06 c -1.84,-1.11 -4.32,-0.63 -5.52,1.07 -1.2,1.7 -0.68,3.99 1.16,5.1 1.84,1.11 4.32,0.63 5.52,-1.07 l 2.23,1.34 c -1.27,1.8 -3.41,2.78 -5.58,2.78 z"
   id="path33"
   style="fill:#999999;fill-opacity:1" /><rect
   x="20.830002"
   y="67.995003"
   class="st1"
   width="5.9299998"
   height="2.46"
   id="rect35"
   style="fill:#999999;fill-opacity:1" /><polygon
   class="st2"
   points="52.64,177.56 49.47,182.62 55.81,182.62 "
   id="polygon37"
   transform="translate(-17.23,-104.055)"
   style="fill:#999999;fill-opacity:1" /><path
   class="st1"
   d="M 81.78,14.965 H 70.77 c -3.67,0 -6.65,2.98 -6.65,6.65 v 36.71 h 8.46 v -35.49 h 9.32 c 5.62,0 7.54,2.91 7.54,6.81 0,3.97 -1.92,6.88 -7.54,6.88 h -5.88 v 7.8 h 5.75 c 11.24,0 16.26,-6.22 16.26,-14.68 0,-8.46 -5.01,-14.68 -16.25,-14.68 z"
   id="path45"
   style="fill:#999999;fill-opacity:1" /><rect
   x="-4.5776366e-07"
   y="14.855003"
   class="st1"
   width="7.8699999"
   height="43.459999"
   id="rect47"
   style="fill:#999999;fill-opacity:1" /><path
   class="st0"
   d="m 0.01,9.825 h 7.87 v -9.5 0 c -4.34,0 -7.87,3.52 -7.87,7.87 z"
   id="path49"
   style="fill:#999999;fill-opacity:1" /><path
   class="st1"
   d="M 44.82,30.765 23.89,15.655 v 0.01 c -0.83,-0.51 -1.8,-0.81 -2.84,-0.81 -2.99,0 -5.42,2.43 -5.42,5.42 v 38.04 h 7.91 v -32.77 l 21.28,15.39 z"
   id="path51"
   style="fill:#999999;fill-opacity:1" /><path
   class="st0"
   d="m 26.72,42.395 20.93,15.11 v -0.01 c 0.83,0.51 1.8,0.81 2.84,0.81 2.99,0 5.42,-2.43 5.42,-5.42 V 14.845 H 48 v 32.77 L 26.72,32.225 Z"
   id="path53"
   style="fill:#999999;fill-opacity:1" /><path
   class="st1"
   d="m 19.09,3.085 c 0.22,-0.23 0.49,-0.42 0.79,-0.55 0.65,-0.28 1.51,-0.25 2.12,0.03 0.33,0.15 0.59,0.34 0.79,0.56 l 0.14,0.17 1.66,-1.89 -0.13,-0.13 c -0.41,-0.39 -0.94,-0.7 -1.58,-0.93 -1.26,-0.44 -2.83,-0.46 -4.09,0.01 -0.62,0.23 -1.17,0.57 -1.64,1 -0.47,0.43 -0.83,0.97 -1.1,1.58 -0.26,0.61 -0.4,1.31 -0.4,2.06 0,0.75 0.13,1.43 0.39,2.04 0.26,0.61 0.62,1.14 1.08,1.58 0.46,0.44 1.02,0.78 1.65,1.02 0.63,0.24 1.34,0.36 2.09,0.36 0.72,0 1.39,-0.08 2,-0.23 v 0 c 0.61,-0.15 1.15,-0.35 1.61,-0.58 l 0.1,-0.05 v -5.15 h -4.15 v 2.16 h 1.74 v 1.35 c -0.15,0.06 -0.31,0.1 -0.49,0.13 -0.22,0.04 -0.46,0.06 -0.71,0.06 -0.42,0 -0.8,-0.07 -1.12,-0.2 -0.32,-0.13 -0.59,-0.32 -0.81,-0.55 -0.22,-0.23 -0.38,-0.52 -0.49,-0.84 -0.11,-0.33 -0.17,-0.7 -0.17,-1.1 0,-0.39 0.06,-0.75 0.19,-1.08 0.13,-0.31 0.3,-0.59 0.53,-0.83 z"
   id="path57"
   style="fill:#999999;fill-opacity:1" /><path
   class="st1"
   d="m 34.63,4.885 c 0.36,-0.45 0.55,-1.02 0.55,-1.68 0,-0.56 -0.11,-1.03 -0.32,-1.41 C 34.65,1.415 34.36,1.105 34,0.875 33.65,0.645 33.25,0.485 32.81,0.395 32.38,0.305 31.94,0.255 31.48,0.255 H 27.8 v 9.52 h 2.54 v -3.63 h 0.45 l 1.99,3.63 h 3.03 l -2.44,-4 c 0.53,-0.19 0.95,-0.49 1.26,-0.89 z m -4.29,-2.47 h 0.99 c 0.15,0 0.32,0.01 0.48,0.04 0.16,0.02 0.3,0.07 0.42,0.13 0.12,0.06 0.21,0.14 0.28,0.25 0.07,0.1 0.1,0.24 0.1,0.42 0,0.19 -0.04,0.35 -0.12,0.46 -0.08,0.12 -0.18,0.21 -0.31,0.27 -0.14,0.07 -0.29,0.12 -0.46,0.14 -0.18,0.03 -0.36,0.04 -0.53,0.04 h -0.86 v -1.75 z"
   id="path59"
   style="fill:#999999;fill-opacity:1" /><polygon
   class="st1"
   points="55.67,113.83 62.43,113.83 62.43,111.57 58.18,111.57 58.18,110.05 61.98,110.05 61.98,107.9 58.18,107.9 58.18,106.55 62.2,106.55 62.2,104.31 55.67,104.31 "
   id="polygon61"
   transform="translate(-17.23,-104.055)"
   style="fill:#999999;fill-opacity:1" /><polygon
   class="st1"
   points="74.15,104.31 71.62,104.31 71.67,109.85 68.26,104.31 65.45,104.31 65.45,113.83 67.97,113.83 67.93,108.28 71.34,113.83 74.15,113.83 "
   id="polygon63"
   transform="translate(-17.23,-104.055)"
   style="fill:#999999;fill-opacity:1" /><path
   class="st1"
   d="m 68.28,1.345 c -0.46,-0.43 -1.01,-0.76 -1.65,-1 -1.26,-0.46 -2.85,-0.46 -4.1,0 -0.63,0.23 -1.18,0.57 -1.64,1 -0.46,0.43 -0.83,0.96 -1.09,1.57 -0.26,0.61 -0.39,1.3 -0.39,2.06 0,0.75 0.13,1.44 0.39,2.06 0.26,0.62 0.62,1.16 1.08,1.6 0.46,0.44 1.01,0.79 1.64,1.03 0.63,0.24 1.32,0.36 2.05,0.36 0.73,0 1.43,-0.12 2.06,-0.36 0.63,-0.24 1.19,-0.59 1.65,-1.03 0.46,-0.44 0.82,-0.98 1.08,-1.6 0.26,-0.62 0.39,-1.31 0.39,-2.06 0,-0.75 -0.13,-1.45 -0.39,-2.06 -0.25,-0.61 -0.62,-1.14 -1.08,-1.57 z m -1.27,3.63 c 0,0.39 -0.06,0.75 -0.18,1.08 -0.12,0.32 -0.29,0.6 -0.5,0.83 -0.21,0.23 -0.47,0.41 -0.76,0.54 -0.59,0.26 -1.38,0.26 -1.96,0 -0.29,-0.13 -0.55,-0.31 -0.76,-0.54 -0.21,-0.23 -0.38,-0.51 -0.5,-0.84 -0.12,-0.33 -0.18,-0.69 -0.18,-1.08 0,-0.37 0.06,-0.72 0.18,-1.05 0.12,-0.32 0.28,-0.59 0.5,-0.82 0.21,-0.23 0.47,-0.41 0.77,-0.54 0.29,-0.13 0.62,-0.2 0.98,-0.2 0.36,0 0.69,0.07 0.99,0.2 0.3,0.13 0.55,0.31 0.76,0.54 0.21,0.23 0.38,0.5 0.5,0.82 0.1,0.34 0.16,0.69 0.16,1.06 z"
   id="path65"
   style="fill:#999999;fill-opacity:1" /><path
   class="st1"
   d="m 79.16,5.355 c -0.18,-0.2 -0.4,-0.36 -0.65,-0.49 -0.09,-0.05 -0.18,-0.09 -0.28,-0.12 0.27,-0.15 0.5,-0.34 0.69,-0.57 0.3,-0.37 0.46,-0.83 0.46,-1.38 0,-0.5 -0.11,-0.92 -0.31,-1.25 -0.21,-0.33 -0.47,-0.59 -0.8,-0.78 -0.32,-0.19 -0.68,-0.32 -1.07,-0.4 -0.38,-0.08 -0.76,-0.11 -1.12,-0.11 h -3.83 v 9.52 h 3.83 c 0.45,0 0.9,-0.05 1.33,-0.14 0.44,-0.09 0.83,-0.25 1.18,-0.47 0.35,-0.22 0.64,-0.52 0.85,-0.89 0.21,-0.37 0.32,-0.82 0.32,-1.35 0,-0.32 -0.05,-0.62 -0.16,-0.89 -0.11,-0.26 -0.25,-0.49 -0.44,-0.68 z m -2.55,-1.67 c -0.19,0.14 -0.48,0.21 -0.85,0.21 h -1 v -1.51 h 0.9 c 0.43,0 0.75,0.06 0.95,0.19 0.18,0.11 0.26,0.27 0.26,0.52 0.01,0.26 -0.08,0.45 -0.26,0.59 z m -1.84,2.22 h 1.04 c 0.44,0 0.79,0.07 1.05,0.2 0.22,0.11 0.32,0.31 0.32,0.62 0,0.18 -0.04,0.33 -0.11,0.44 -0.08,0.12 -0.17,0.2 -0.3,0.27 -0.13,0.07 -0.28,0.12 -0.45,0.14 -0.18,0.03 -0.35,0.04 -0.51,0.04 h -1.04 z"
   id="path67"
   style="fill:#999999;fill-opacity:1" /><polygon
   class="st1"
   points="99.75,113.83 105.89,113.83 105.89,111.53 102.35,111.53 102.35,104.31 99.75,104.31 "
   id="polygon69"
   transform="translate(-17.23,-104.055)"
   style="fill:#999999;fill-opacity:1" /><polygon
   class="st1"
   points="108.35,104.31 108.35,113.83 115.12,113.83 115.12,111.57 110.87,111.57 110.87,110.05 114.66,110.05 114.66,107.9 110.87,107.9 110.87,106.55 114.88,106.55 114.88,104.31 "
   id="polygon71"
   transform="translate(-17.23,-104.055)"
   style="fill:#999999;fill-opacity:1" />
<g
   id="Repères"
   class="st3"
   transform="translate(-17.23,-104.055)">
	<rect
   x="123.74"
   y="129.39"
   class="st4"
   width="8.46"
   height="8.1400003"
   id="rect78" />
	<rect
   x="115.27"
   y="129.39"
   class="st4"
   width="8.46"
   height="8.1400003"
   id="rect80" />
	<rect
   x="123.74"
   y="129.39"
   class="st4"
   width="8.46"
   height="8.1400003"
   id="rect82" />
	<g
   class="st5"
   id="g86">
		<path
   class="st6"
   d="m 266.23,127 h 9.32 c 5.62,0 7.54,2.91 7.54,6.81 0,3.97 -1.92,6.88 -7.54,6.88 h -9.32 z"
   id="path84" />
	</g>
	<g
   class="st5"
   id="g90">
		<path
   class="st6"
   d="m 0.37,127 h 9.32 c 5.62,0 7.54,2.91 7.54,6.81 0,3.97 -1.92,6.88 -7.54,6.88 H 0.37 Z"
   id="path88" />
	</g>
	<g
   class="st5"
   id="g94">
		<path
   class="st6"
   d="m 59.46,104.26 v -9.32 c 0,-5.62 2.91,-7.54 6.81,-7.54 3.97,0 6.88,1.92 6.88,7.54 v 9.32 z"
   id="path92" />
	</g>
	<g
   class="st5"
   id="g98">
		<path
   class="st6"
   d="m 50.2,196.06 v -9.32 c 0,-5.62 2.91,-7.54 6.81,-7.54 3.97,0 6.88,1.92 6.88,7.54 v 9.32 z"
   id="path96" />
	</g>
</g>
</svg>
