<?xml version="1.0" encoding="UTF-8" standalone="no"?>
<!DOCTYPE svg PUBLIC "-//W3C//DTD SVG 1.1//EN"
 "http://www.w3.org/Graphics/SVG/1.1/DTD/svg11.dtd">
<!-- Generated by graphviz version 12.1.1 (20240910.0053)
 -->
<!-- Title: automate Pages: 1 -->
<svg width="580pt" height="175pt"
 viewBox="0.00 0.00 579.50 174.85" xmlns="http://www.w3.org/2000/svg" xmlns:xlink="http://www.w3.org/1999/xlink">
<g id="graph0" class="graph" transform="scale(1 1) rotate(0) translate(4 170.85)">
<title>automate</title>
<polygon fill="white" stroke="none" points="-4,4 -4,-170.85 575.5,-170.85 575.5,4 -4,4"/>
<!-- debut -->
<g id="node1" class="node">
<title>debut</title>
<ellipse fill="none" stroke="black" cx="36" cy="-39.35" rx="36" ry="36"/>
<text text-anchor="middle" x="36" y="-34.3" font-family="Times,serif" font-size="14.00">debut</text>
</g>
<!-- debut&#45;&gt;debut -->
<g id="edge1" class="edge">
<title>debut&#45;&gt;debut</title>
<path fill="none" stroke="black" d="M23.34,-73.36C23.41,-84.49 27.63,-93.35 36,-93.35 41.23,-93.35 44.84,-89.89 46.83,-84.58"/>
<polygon fill="black" stroke="black" points="50.26,-85.29 48.41,-74.86 43.35,-84.16 50.26,-85.29"/>
<text text-anchor="middle" x="36" y="-96.55" font-family="Times,serif" font-size="14.00">autre</text>
</g>
<!-- unBon -->
<g id="node2" class="node">
<title>unBon</title>
<ellipse fill="none" stroke="black" cx="171" cy="-96.35" rx="36" ry="36"/>
<text text-anchor="middle" x="171" y="-91.3" font-family="Times,serif" font-size="14.00">unBon</text>
</g>
<!-- debut&#45;&gt;unBon -->
<g id="edge2" class="edge">
<title>debut&#45;&gt;unBon</title>
<path fill="none" stroke="black" d="M65.48,-60.52C73.16,-65.56 81.67,-70.57 90,-74.35 100.72,-79.22 112.76,-83.22 124.17,-86.41"/>
<polygon fill="black" stroke="black" points="123.28,-89.8 133.84,-88.95 125.06,-83.03 123.28,-89.8"/>
<text text-anchor="middle" x="103.5" y="-87.08" font-family="Times,serif" font-size="14.00">4</text>
</g>
<!-- unBon&#45;&gt;debut -->
<g id="edge5" class="edge">
<title>unBon&#45;&gt;debut</title>
<path fill="none" stroke="black" d="M144.5,-71.69C136.29,-64.96 126.77,-58.3 117,-53.85 106.6,-49.11 94.77,-45.92 83.46,-43.77"/>
<polygon fill="black" stroke="black" points="84.32,-40.36 73.88,-42.19 83.18,-47.27 84.32,-40.36"/>
<text text-anchor="middle" x="103.5" y="-57.05" font-family="Times,serif" font-size="14.00">autre</text>
</g>
<!-- unBon&#45;&gt;unBon -->
<g id="edge4" class="edge">
<title>unBon&#45;&gt;unBon</title>
<path fill="none" stroke="black" d="M158.34,-130.36C158.41,-141.49 162.63,-150.35 171,-150.35 176.23,-150.35 179.84,-146.89 181.83,-141.58"/>
<polygon fill="black" stroke="black" points="185.26,-142.29 183.41,-131.86 178.35,-141.16 185.26,-142.29"/>
<text text-anchor="middle" x="171" y="-153.55" font-family="Times,serif" font-size="14.00">4</text>
</g>
<!-- deuxBons -->
<g id="node3" class="node">
<title>deuxBons</title>
<ellipse fill="none" stroke="black" cx="306" cy="-56.35" rx="36" ry="36"/>
<text text-anchor="middle" x="306" y="-51.3" font-family="Times,serif" font-size="14.00">deuxBons</text>
</g>
<!-- unBon&#45;&gt;deuxBons -->
<g id="edge3" class="edge">
<title>unBon&#45;&gt;deuxBons</title>
<path fill="none" stroke="black" d="M198.26,-72.48C206.28,-66.57 215.51,-61.03 225,-57.85 235.56,-54.31 247.35,-52.84 258.56,-52.49"/>
<polygon fill="black" stroke="black" points="258.45,-55.99 268.45,-52.49 258.45,-48.99 258.45,-55.99"/>
<text text-anchor="middle" x="238.5" y="-61.05" font-family="Times,serif" font-size="14.00">0</text>
</g>
<!-- deuxBons&#45;&gt;debut -->
<g id="edge8" class="edge">
<title>deuxBons&#45;&gt;debut</title>
<path fill="none" stroke="black" d="M270.83,-46.95C252.14,-42.29 228.47,-37.18 207,-34.85 165.33,-30.33 117.6,-32.21 83.35,-34.78"/>
<polygon fill="black" stroke="black" points="83.47,-31.26 73.78,-35.54 84.03,-38.23 83.47,-31.26"/>
<text text-anchor="middle" x="171" y="-38.05" font-family="Times,serif" font-size="14.00">autre</text>
</g>
<!-- deuxBons&#45;&gt;unBon -->
<g id="edge7" class="edge">
<title>deuxBons&#45;&gt;unBon</title>
<path fill="none" stroke="black" d="M271.45,-68.08C265.02,-70.23 258.32,-72.41 252,-74.35 240.74,-77.81 228.52,-81.3 217.09,-84.45"/>
<polygon fill="black" stroke="black" points="216.18,-81.07 207.45,-87.08 218.02,-87.82 216.18,-81.07"/>
<text text-anchor="middle" x="238.5" y="-85.24" font-family="Times,serif" font-size="14.00">4</text>
</g>
<!-- troisBons -->
<g id="node4" class="node">
<title>troisBons</title>
<ellipse fill="none" stroke="black" cx="420.75" cy="-56.35" rx="36" ry="36"/>
<text text-anchor="middle" x="420.75" y="-51.3" font-family="Times,serif" font-size="14.00">troisBons</text>
</g>
<!-- deuxBons&#45;&gt;troisBons -->
<g id="edge6" class="edge">
<title>deuxBons&#45;&gt;troisBons</title>
<path fill="none" stroke="black" d="M342.37,-56.35C352.13,-56.35 362.87,-56.35 373.16,-56.35"/>
<polygon fill="black" stroke="black" points="373,-59.85 383,-56.35 373,-52.85 373,-59.85"/>
<text text-anchor="middle" x="363.38" y="-59.55" font-family="Times,serif" font-size="14.00">9</text>
</g>
<!-- troisBons&#45;&gt;debut -->
<g id="edge11" class="edge">
<title>troisBons&#45;&gt;debut</title>
<path fill="none" stroke="black" d="M391.46,-35.14C377.38,-25.89 359.62,-16.08 342,-11.35 251.78,12.88 141.75,-9.33 81.59,-25.66"/>
<polygon fill="black" stroke="black" points="80.75,-22.26 72.06,-28.32 82.63,-29 80.75,-22.26"/>
<text text-anchor="middle" x="238.5" y="-4.47" font-family="Times,serif" font-size="14.00">autre</text>
</g>
<!-- troisBons&#45;&gt;unBon -->
<g id="edge10" class="edge">
<title>troisBons&#45;&gt;unBon</title>
<path fill="none" stroke="black" d="M391.44,-77.47C377.35,-86.71 359.6,-96.52 342,-101.35 301.07,-112.58 252.5,-109.63 217.78,-104.87"/>
<polygon fill="black" stroke="black" points="218.47,-101.43 208.07,-103.43 217.44,-108.36 218.47,-101.43"/>
<text text-anchor="middle" x="306" y="-112.31" font-family="Times,serif" font-size="14.00">4</text>
</g>
<!-- ouverture -->
<g id="node5" class="node">
<title>ouverture</title>
<text text-anchor="middle" x="535.5" y="-51.3" font-family="Times,serif" font-size="14.00">ouverture</text>
</g>
<!-- troisBons&#45;&gt;ouverture -->
<g id="edge9" class="edge">
<title>troisBons&#45;&gt;ouverture</title>
<path fill="none" stroke="black" d="M457.12,-56.35C466.97,-56.35 477.82,-56.35 488.2,-56.35"/>
<polygon fill="black" stroke="black" points="488.13,-59.85 498.13,-56.35 488.13,-52.85 488.13,-59.85"/>
<text text-anchor="middle" x="478.12" y="-59.55" font-family="Times,serif" font-size="14.00">6</text>
</g>
</g>
</svg>
