P1
9   14
0  0  0  0  0  0  0  0  0
0   0   0   0   0   0   0   0   0 0   0   1   1   1   1   1   0   0

0  0  1  1  1  1  1  0  0
0  0     1  1  0  0  0  0  0
0  0  1  1   0  0  0  0  0
0  0  1  1  1  1     0  0  0



00111  1000
0   0   1   1   0   0   0   0   0
0   0   1   1   0   0   0   0   0
0  0  1  1  1  1  1  0  0
0  0  1  1  1  1  1      0  0
0  0  0  0   0  0  0  0  0
0  0     0  0  0  0  0  0  0
