<?xml version="1.0" encoding="UTF-8" standalone="no"?>
<!DOCTYPE svg PUBLIC "-//W3C//DTD SVG 1.1//EN"
 "http://www.w3.org/Graphics/SVG/1.1/DTD/svg11.dtd">
<!-- Generated by graphviz version 12.1.2 (20240928.0832)
 -->
<!-- Pages: 1 -->
<svg width="526pt" height="66pt"
 viewBox="0.00 0.00 526.00 66.40" xmlns="http://www.w3.org/2000/svg" xmlns:xlink="http://www.w3.org/1999/xlink">
<g id="graph0" class="graph" transform="scale(1 1) rotate(0) translate(4 62.4)">
<polygon fill="white" stroke="none" points="-4,4 -4,-62.4 522,-62.4 522,4 -4,4"/>
<!-- V -->
<g id="node1" class="node">
<title>V</title>
<text text-anchor="middle" x="27" y="-23.2" font-family="Times,serif" font-size="14.00">lsc</text>
</g>
<!-- A -->
<g id="node2" class="node">
<title>A</title>
<polygon fill="none" stroke="black" points="90,-0.5 90,-36.5 144,-36.5 144,-0.5 90,-0.5"/>
<text text-anchor="middle" x="103.88" y="-13.7" font-family="Times,serif" font-size="14.00">3</text>
<polyline fill="none" stroke="black" points="117.75,-1 117.75,-36.5"/>
<text text-anchor="middle" x="130.62" y="-13.7" font-family="Times,serif" font-size="14.00"> </text>
</g>
<!-- V&#45;&gt;A -->
<g id="edge1" class="edge">
<title>V:ne&#45;&gt;A:n</title>
<path fill="none" stroke="black" d="M43.83,-36.33C63.78,-56.28 104.15,-66.97 114.53,-48.24"/>
<polygon fill="black" stroke="black" points="117.83,-49.51 116.66,-38.97 111.01,-47.93 117.83,-49.51"/>
</g>
<!-- B -->
<g id="node3" class="node">
<title>B</title>
<polygon fill="none" stroke="black" points="180,-0.5 180,-36.5 234,-36.5 234,-0.5 180,-0.5"/>
<text text-anchor="middle" x="193.88" y="-13.7" font-family="Times,serif" font-size="14.00">1</text>
<polyline fill="none" stroke="black" points="207.75,-1 207.75,-36.5"/>
<text text-anchor="middle" x="220.62" y="-13.7" font-family="Times,serif" font-size="14.00"> </text>
</g>
<!-- A&#45;&gt;B -->
<g id="edge2" class="edge">
<title>A:c&#45;&gt;B:val</title>
<path fill="none" stroke="black" d="M139.37,-18.75C146.69,-18.75 157.69,-18.75 168.69,-18.75"/>
<ellipse fill="black" stroke="black" cx="135.12" cy="-18.75" rx="4" ry="4"/>
<polygon fill="black" stroke="black" points="168.49,-22.25 178.49,-18.75 168.49,-15.25 168.49,-22.25"/>
</g>
<!-- C -->
<g id="node4" class="node">
<title>C</title>
<polygon fill="none" stroke="black" points="270,-0.5 270,-36.5 324,-36.5 324,-0.5 270,-0.5"/>
<text text-anchor="middle" x="283.88" y="-13.7" font-family="Times,serif" font-size="14.00">4</text>
<polyline fill="none" stroke="black" points="297.75,-1 297.75,-36.5"/>
<text text-anchor="middle" x="310.62" y="-13.7" font-family="Times,serif" font-size="14.00"> </text>
</g>
<!-- B&#45;&gt;C -->
<g id="edge3" class="edge">
<title>B:c&#45;&gt;C:val</title>
<path fill="none" stroke="black" d="M229.37,-18.75C236.69,-18.75 247.69,-18.75 258.69,-18.75"/>
<ellipse fill="black" stroke="black" cx="225.12" cy="-18.75" rx="4" ry="4"/>
<polygon fill="black" stroke="black" points="258.49,-22.25 268.49,-18.75 258.49,-15.25 258.49,-22.25"/>
</g>
<!-- D -->
<g id="node5" class="node">
<title>D</title>
<polygon fill="none" stroke="black" points="360,-0.5 360,-36.5 414,-36.5 414,-0.5 360,-0.5"/>
<text text-anchor="middle" x="373.88" y="-13.7" font-family="Times,serif" font-size="14.00">2</text>
<polyline fill="none" stroke="black" points="387.75,-1 387.75,-36.5"/>
<text text-anchor="middle" x="400.62" y="-13.7" font-family="Times,serif" font-size="14.00"> </text>
</g>
<!-- C&#45;&gt;D -->
<g id="edge4" class="edge">
<title>C:c&#45;&gt;D:val</title>
<path fill="none" stroke="black" d="M319.37,-18.75C326.69,-18.75 337.69,-18.75 348.69,-18.75"/>
<ellipse fill="black" stroke="black" cx="315.12" cy="-18.75" rx="4" ry="4"/>
<polygon fill="black" stroke="black" points="348.49,-22.25 358.49,-18.75 348.49,-15.25 348.49,-22.25"/>
</g>
<!-- E -->
<g id="node6" class="node">
<title>E</title>
<polygon fill="none" stroke="black" points="450,-0.5 450,-36.5 518,-36.5 518,-0.5 450,-0.5"/>
<text text-anchor="middle" x="461.38" y="-13.7" font-family="Times,serif" font-size="14.00">7</text>
<polyline fill="none" stroke="black" points="472.75,-1 472.75,-36.5"/>
<text text-anchor="middle" x="495.38" y="-13.7" font-family="Times,serif" font-size="14.00">nil</text>
</g>
<!-- D&#45;&gt;E -->
<g id="edge5" class="edge">
<title>D:c&#45;&gt;E:val</title>
<path fill="none" stroke="black" d="M409.37,-18.75C416.69,-18.75 427.69,-18.75 438.69,-18.75"/>
<ellipse fill="black" stroke="black" cx="405.12" cy="-18.75" rx="4" ry="4"/>
<polygon fill="black" stroke="black" points="438.49,-22.25 448.49,-18.75 438.49,-15.25 438.49,-22.25"/>
</g>
</g>
</svg>
