<?xml version="1.0" encoding="UTF-8"?>
<svg xmlns="http://www.w3.org/2000/svg" xmlns:xlink="http://www.w3.org/1999/xlink" width="393.75" height="318.75" viewBox="0 0 393.75 318.75">
<defs>
<clipPath id="clip-0">
<path clip-rule="nonzero" d="M 318 8 L 393.75 8 L 393.75 84 L 318 84 Z M 318 8 "/>
</clipPath>
<clipPath id="clip-1">
<path clip-rule="nonzero" d="M 318 233 L 393.75 233 L 393.75 309 L 318 309 Z M 318 233 "/>
</clipPath>
</defs>
<rect x="-39.375" y="-31.875" width="472.5" height="382.5" fill="rgb(100%, 100%, 100%)" fill-opacity="1"/>
<path fill="none" stroke-width="0.25" stroke-linecap="butt" stroke-linejoin="miter" stroke="rgb(0%, 0%, 0%)" stroke-opacity="1" stroke-miterlimit="4" d="M 18.520833 17.197917 L 26.38888 17.197917 L 26.38888 27.78125 L 18.520833 27.78125 Z M 18.520833 17.197917 " transform="matrix(7.086614, 0, 0, 7.086614, -103.125, -112.5)"/>
<path fill="none" stroke-width="0.25" stroke-linecap="butt" stroke-linejoin="miter" stroke="rgb(0%, 0%, 0%)" stroke-opacity="1" stroke-miterlimit="4" d="M 18.520833 27.78125 L 26.38888 27.78125 L 26.38888 38.364584 L 18.520833 38.364584 Z M 18.520833 27.78125 " transform="matrix(7.086614, 0, 0, 7.086614, -103.125, -112.5)"/>
<path fill="none" stroke-width="0.25" stroke-linecap="butt" stroke-linejoin="miter" stroke="rgb(0%, 0%, 0%)" stroke-opacity="1" stroke-miterlimit="4" d="M 18.520833 38.364584 L 26.38888 38.364584 L 26.38888 48.947917 L 18.520833 48.947917 Z M 18.520833 38.364584 " transform="matrix(7.086614, 0, 0, 7.086614, -103.125, -112.5)"/>
<path fill="none" stroke-width="0.25" stroke-linecap="butt" stroke-linejoin="miter" stroke="rgb(0%, 0%, 0%)" stroke-opacity="1" stroke-miterlimit="4" d="M 18.520833 48.947917 L 26.38888 48.947917 L 26.38888 59.53125 L 18.520833 59.53125 Z M 18.520833 48.947917 " transform="matrix(7.086614, 0, 0, 7.086614, -103.125, -112.5)"/>
<path fill="none" stroke-width="0.25" stroke-linecap="butt" stroke-linejoin="miter" stroke="rgb(0%, 0%, 0%)" stroke-opacity="1" stroke-miterlimit="4" d="M 33.833594 18.54178 L 37.721867 18.54178 C 38.795634 18.54178 39.666554 19.615547 39.666554 20.486467 L 39.666554 24.37474 C 39.666554 25.448507 38.795634 26.319427 37.721867 26.319427 L 33.833594 26.319427 C 32.759827 26.319427 31.888906 25.24566 31.888906 24.37474 L 31.888906 20.486467 C 31.888906 19.4127 32.759827 18.54178 33.833594 18.54178 Z M 33.833594 18.54178 " transform="matrix(7.086614, 0, 0, 7.086614, -103.125, -112.5)"/>
<path fill="none" stroke-width="0.25" stroke-linecap="butt" stroke-linejoin="miter" stroke="rgb(0%, 0%, 0%)" stroke-opacity="1" stroke-miterlimit="4" d="M 48.246771 18.520833 L 52.135044 18.520833 C 53.208811 18.520833 54.079731 19.594601 54.079731 20.465521 L 54.079731 24.353794 C 54.079731 25.427561 53.208811 26.298481 52.135044 26.298481 L 48.246771 26.298481 C 47.173004 26.298481 46.302084 25.224714 46.302084 24.353794 L 46.302084 20.465521 C 46.302084 19.391754 47.173004 18.520833 48.246771 18.520833 Z M 48.246771 18.520833 " transform="matrix(7.086614, 0, 0, 7.086614, -103.125, -112.5)"/>
<path fill-rule="nonzero" fill="rgb(0%, 0%, 0%)" fill-opacity="1" stroke-width="0.05" stroke-linecap="butt" stroke-linejoin="round" stroke="rgb(0%, 0%, 0%)" stroke-opacity="1" stroke-miterlimit="4" d="M 34.995556 23.041901 L 34.995556 22.932761 L 36.079245 21.278012 C 36.097986 21.249349 36.121137 21.235017 36.149801 21.23612 C 36.176259 21.23612 36.191693 21.241632 36.198308 21.251554 C 36.20382 21.262578 36.207127 21.287934 36.207127 21.327622 L 36.207127 22.932761 L 36.559905 22.932761 L 36.559905 23.041901 L 36.207127 23.041901 L 36.207127 23.348377 C 36.207127 23.415625 36.220356 23.460825 36.249019 23.482873 C 36.27658 23.504922 36.351545 23.515946 36.473915 23.515946 L 36.547778 23.515946 L 36.547778 23.623985 C 36.450764 23.61737 36.292014 23.614063 36.069323 23.614063 C 35.847735 23.614063 35.687882 23.61737 35.591971 23.623985 L 35.591971 23.515946 L 35.665834 23.515946 C 35.787101 23.515946 35.863169 23.504922 35.891832 23.483976 C 35.920495 23.461927 35.934827 23.416728 35.934827 23.348377 L 35.934827 23.041901 Z M 35.095877 22.932761 L 35.95467 22.932761 L 35.95467 21.617561 Z M 35.095877 22.932761 " transform="matrix(7.086614, 0, 0, 7.086614, -103.125, -112.5)"/>
<path fill-rule="nonzero" fill="rgb(0%, 0%, 0%)" fill-opacity="1" stroke-width="0.05" stroke-linecap="butt" stroke-linejoin="round" stroke="rgb(0%, 0%, 0%)" stroke-opacity="1" stroke-miterlimit="4" d="M 16.376606 54.89994 C 16.376606 54.829384 16.397552 54.77757 16.43724 54.744497 C 16.47803 54.711424 16.523229 54.694887 16.575043 54.694887 C 16.629063 54.694887 16.675365 54.712526 16.71395 54.746702 C 16.752535 54.781979 16.771276 54.830486 16.771276 54.89112 C 16.771276 54.956164 16.749228 55.007978 16.702925 55.044358 C 16.657726 55.080738 16.603707 55.09507 16.538663 55.085148 C 16.594887 55.179957 16.675365 55.248308 16.778993 55.2902 C 16.882622 55.333195 16.982943 55.354141 17.079957 55.354141 C 17.18138 55.354141 17.272882 55.311146 17.354462 55.222952 C 17.437144 55.13586 17.477934 54.985929 17.477934 54.772058 C 17.477934 54.590157 17.442656 54.447943 17.372101 54.343212 C 17.301545 54.238481 17.196814 54.186667 17.057908 54.186667 L 16.902465 54.186667 C 16.867188 54.186667 16.844037 54.184462 16.833012 54.181155 C 16.82309 54.177848 16.817578 54.166823 16.817578 54.146979 C 16.817578 54.123828 16.83632 54.110599 16.871597 54.105087 C 16.906875 54.105087 16.953177 54.10178 17.009401 54.095165 C 17.146103 54.090756 17.250833 54.029019 17.322491 53.911059 C 17.388637 53.800816 17.420608 53.667422 17.420608 53.509775 C 17.420608 53.366459 17.386432 53.263933 17.318082 53.203299 C 17.249731 53.143768 17.171458 53.1129 17.083264 53.1129 C 17.000582 53.1129 16.91349 53.130539 16.82309 53.164714 C 16.732691 53.198889 16.662136 53.255113 16.612526 53.332283 C 16.759149 53.332283 16.83191 53.391815 16.83191 53.509775 C 16.83191 53.561589 16.815373 53.603481 16.7823 53.637657 C 16.75033 53.671832 16.706233 53.688368 16.652214 53.688368 C 16.600399 53.688368 16.557405 53.671832 16.523229 53.639861 C 16.489054 53.606789 16.471415 53.562691 16.471415 53.506467 C 16.471415 53.371971 16.532049 53.25842 16.652214 53.164714 C 16.772379 53.07211 16.920104 53.025808 17.097596 53.025808 C 17.27178 53.025808 17.423915 53.071007 17.552899 53.163611 C 17.681884 53.255113 17.746927 53.371971 17.746927 53.513082 C 17.746927 53.651988 17.700625 53.778768 17.609123 53.892318 C 17.516519 54.005868 17.397457 54.086346 17.251936 54.132648 C 17.431632 54.169028 17.573846 54.247301 17.680781 54.368568 C 17.787717 54.489835 17.841736 54.624332 17.841736 54.772058 C 17.841736 54.956164 17.768976 55.114914 17.624557 55.250512 C 17.480139 55.385009 17.301545 55.452257 17.089879 55.452257 C 16.894748 55.452257 16.727179 55.399341 16.58717 55.29461 C 16.447162 55.188776 16.376606 55.056485 16.376606 54.89994 Z M 16.376606 54.89994 " transform="matrix(7.086614, 0, 0, 7.086614, -103.125, -112.5)"/>
<path fill-rule="nonzero" fill="rgb(0%, 0%, 0%)" fill-opacity="1" stroke-width="0.05" stroke-linecap="butt" stroke-linejoin="round" stroke="rgb(0%, 0%, 0%)" stroke-opacity="1" stroke-miterlimit="4" d="M 16.431728 44.831441 C 16.431728 44.788446 16.433932 44.760886 16.438342 44.748759 C 16.442752 44.736632 16.453776 44.720096 16.471415 44.700252 L 17.148307 43.946189 C 17.395252 43.668377 17.518724 43.408203 17.518724 43.165669 C 17.518724 43.008021 17.477934 42.873525 17.396354 42.761077 C 17.313672 42.648629 17.197917 42.592405 17.046884 42.592405 C 16.943255 42.592405 16.848446 42.623273 16.761354 42.687214 C 16.674262 42.750052 16.610321 42.838247 16.569531 42.950695 C 16.577248 42.94849 16.592682 42.947387 16.616936 42.947387 C 16.675365 42.947387 16.720564 42.965026 16.753637 43.002509 C 16.78671 43.038889 16.802144 43.081884 16.802144 43.131493 C 16.802144 43.194332 16.7823 43.241736 16.741511 43.271502 C 16.700721 43.30237 16.659931 43.317804 16.620243 43.317804 C 16.603707 43.317804 16.584965 43.315599 16.564019 43.312292 C 16.543073 43.308985 16.515512 43.290243 16.482439 43.258273 C 16.449366 43.2252 16.431728 43.18 16.431728 43.120469 C 16.431728 42.956207 16.494566 42.809584 16.619141 42.678394 C 16.743715 42.547205 16.901363 42.482162 17.092083 42.482162 C 17.30816 42.482162 17.486754 42.546103 17.628967 42.673985 C 17.770078 42.801867 17.841736 42.966129 17.841736 43.165669 C 17.841736 43.236224 17.830712 43.30237 17.809766 43.366311 C 17.787717 43.430252 17.763464 43.486476 17.7348 43.536085 C 17.70724 43.585695 17.655425 43.649636 17.579358 43.729011 C 17.50329 43.808386 17.434939 43.875634 17.374306 43.931858 C 17.313672 43.988082 17.214453 44.076276 17.077752 44.195339 L 16.704028 44.559141 L 17.34013 44.559141 C 17.546285 44.559141 17.65763 44.550321 17.674167 44.53158 C 17.697318 44.498507 17.722674 44.393776 17.751337 44.21849 L 17.841736 44.21849 L 17.741415 44.831441 Z M 16.431728 44.831441 " transform="matrix(7.086614, 0, 0, 7.086614, -103.125, -112.5)"/>
<path fill-rule="nonzero" fill="rgb(0%, 0%, 0%)" fill-opacity="1" stroke-width="0.05" stroke-linecap="butt" stroke-linejoin="round" stroke="rgb(0%, 0%, 0%)" stroke-opacity="1" stroke-miterlimit="4" d="M 16.676467 32.233967 L 16.676467 32.123724 C 16.959792 32.123724 17.173663 32.048759 17.319184 31.898828 C 17.359974 31.898828 17.383125 31.903238 17.38974 31.912057 C 17.396354 31.920877 17.400764 31.947335 17.400764 31.99033 L 17.400764 33.969193 C 17.400764 34.038646 17.4173 34.084948 17.452578 34.106997 C 17.486754 34.129045 17.579358 34.14007 17.729288 34.14007 L 17.841736 34.14007 L 17.841736 34.248108 C 17.759054 34.241493 17.568333 34.238186 17.269575 34.238186 C 16.970816 34.238186 16.781198 34.241493 16.699618 34.248108 L 16.699618 34.14007 L 16.810964 34.14007 C 16.959792 34.14007 17.051294 34.129045 17.086571 34.108099 C 17.121849 34.086051 17.14059 34.039748 17.14059 33.969193 L 17.14059 32.141363 C 17.017118 32.203099 16.862778 32.233967 16.676467 32.233967 Z M 16.676467 32.233967 " transform="matrix(7.086614, 0, 0, 7.086614, -103.125, -112.5)"/>
<path fill-rule="nonzero" fill="rgb(0%, 0%, 0%)" fill-opacity="1" stroke-width="0.05" stroke-linecap="butt" stroke-linejoin="round" stroke="rgb(0%, 0%, 0%)" stroke-opacity="1" stroke-miterlimit="4" d="M 16.356762 22.4973 C 16.356762 22.151137 16.400859 21.884349 16.487951 21.695833 C 16.609219 21.415816 16.814271 21.275807 17.100903 21.275807 C 17.161537 21.275807 17.224375 21.283524 17.288316 21.300061 C 17.352257 21.316597 17.423915 21.357387 17.504392 21.420226 C 17.585972 21.483064 17.651016 21.566849 17.700625 21.670478 C 17.794332 21.870017 17.841736 22.145625 17.841736 22.4973 C 17.841736 22.840156 17.797639 23.105842 17.710547 23.292153 C 17.582665 23.565556 17.378715 23.702257 17.097596 23.702257 C 16.991762 23.702257 16.884826 23.675799 16.777891 23.62178 C 16.670955 23.567761 16.582761 23.476259 16.515512 23.346172 C 16.409679 23.152144 16.356762 22.86882 16.356762 22.4973 Z M 16.650009 22.453203 C 16.650009 22.808186 16.662136 23.056233 16.687491 23.197344 C 16.716155 23.350582 16.770174 23.459722 16.848446 23.525868 C 16.926719 23.592014 17.010504 23.625087 17.097596 23.625087 C 17.191302 23.625087 17.278394 23.589809 17.356667 23.519254 C 17.434939 23.448698 17.486754 23.337353 17.511007 23.184115 C 17.537465 23.034184 17.549592 22.790547 17.54849 22.453203 C 17.54849 22.125781 17.537465 21.897578 17.514314 21.766389 C 17.483446 21.613151 17.427222 21.506215 17.34454 21.445582 C 17.26296 21.383846 17.180278 21.352978 17.097596 21.352978 C 17.066728 21.352978 17.034757 21.357387 17.001684 21.367309 C 16.968611 21.376129 16.928924 21.393767 16.882622 21.420226 C 16.835217 21.446684 16.793325 21.492986 16.756945 21.55803 C 16.720564 21.623073 16.694106 21.705755 16.67757 21.803872 C 16.658828 21.931754 16.650009 22.14783 16.650009 22.453203 Z M 16.650009 22.453203 " transform="matrix(7.086614, 0, 0, 7.086614, -103.125, -112.5)"/>
<path fill-rule="nonzero" fill="rgb(0%, 0%, 0%)" fill-opacity="1" stroke-width="0.05" stroke-linecap="butt" stroke-linejoin="round" stroke="rgb(0%, 0%, 0%)" stroke-opacity="1" stroke-miterlimit="4" d="M 34.906259 32.573516 C 34.906259 32.447839 34.925 32.343108 34.96138 32.257118 C 34.998863 32.172231 35.055087 32.086242 35.132257 32.001354 C 35.273368 31.853629 35.44645 31.779766 35.6504 31.779766 C 35.737492 31.779766 35.820174 31.797405 35.898446 31.834887 C 35.975617 31.871268 36.051684 31.931901 36.125547 32.014584 C 36.19941 32.098368 36.258941 32.22184 36.304141 32.385 C 36.348238 32.54816 36.371389 32.74329 36.371389 32.968186 C 36.371389 33.331988 36.283195 33.629644 36.106806 33.860052 C 35.930417 34.091563 35.72316 34.206215 35.485035 34.206215 C 35.335104 34.206215 35.216042 34.17204 35.126745 34.103689 C 35.038551 34.035339 34.994453 33.942735 34.994453 33.825877 C 34.994453 33.765243 35.012092 33.721146 35.046268 33.69579 C 35.080443 33.670434 35.117926 33.657205 35.156511 33.657205 C 35.199505 33.657205 35.236988 33.671537 35.270061 33.699097 C 35.303134 33.727761 35.31967 33.767448 35.31967 33.819262 C 35.31967 33.861155 35.306441 33.898637 35.279983 33.93171 C 35.252422 33.964783 35.205018 33.98132 35.135564 33.98132 C 35.203915 34.066207 35.318568 34.108099 35.481728 34.108099 C 35.540156 34.108099 35.599688 34.09487 35.658117 34.068412 C 35.716545 34.040851 35.777179 33.994549 35.84112 33.928403 C 35.905061 33.862257 35.955773 33.759731 35.99546 33.620825 C 36.034045 33.481919 36.053889 33.314349 36.053889 33.119219 L 36.053889 33.007873 C 35.960183 33.242691 35.812457 33.360651 35.612917 33.360651 C 35.415582 33.360651 35.248012 33.284584 35.111311 33.133551 C 34.97461 32.981415 34.906259 32.795104 34.906259 32.573516 Z M 35.223759 32.576823 C 35.223759 32.810538 35.244705 32.969288 35.2877 33.05638 C 35.359358 33.204106 35.469601 33.277969 35.616224 33.277969 C 35.75954 33.277969 35.867578 33.214028 35.939236 33.086146 C 36.010894 32.958264 36.047275 32.810538 36.047275 32.644071 C 36.047275 32.413663 36.028533 32.247196 35.989948 32.146875 C 35.920495 31.960564 35.806945 31.866858 35.651502 31.866858 C 35.496059 31.866858 35.378099 31.941823 35.297622 32.089549 C 35.248012 32.176641 35.223759 32.339801 35.223759 32.576823 Z M 35.223759 32.576823 " transform="matrix(7.086614, 0, 0, 7.086614, -103.125, -112.5)"/>
<path fill-rule="nonzero" fill="rgb(0%, 0%, 0%)" fill-opacity="1" stroke-width="0.05" stroke-linecap="butt" stroke-linejoin="round" stroke="rgb(0%, 0%, 0%)" stroke-opacity="1" stroke-miterlimit="4" d="M 49.44842 22.417925 C 49.44842 22.071762 49.492518 21.804974 49.57961 21.616458 C 49.700877 21.336441 49.905929 21.196432 50.192561 21.196432 C 50.253195 21.196432 50.316033 21.204149 50.379974 21.220686 C 50.443915 21.237222 50.515573 21.278012 50.596051 21.340851 C 50.677631 21.403689 50.742674 21.487474 50.792283 21.591103 C 50.88599 21.790642 50.933394 22.06625 50.933394 22.417925 C 50.933394 22.760781 50.889297 23.026467 50.802205 23.212778 C 50.674323 23.486181 50.470374 23.622882 50.189254 23.622882 C 50.08342 23.622882 49.976485 23.596424 49.869549 23.542405 C 49.762613 23.488386 49.674419 23.396884 49.60717 23.266797 C 49.501337 23.072769 49.44842 22.789445 49.44842 22.417925 Z M 49.741667 22.373828 C 49.741667 22.728811 49.753794 22.976858 49.77915 23.117969 C 49.807813 23.271207 49.861832 23.380347 49.940104 23.446493 C 50.018377 23.512639 50.102162 23.545712 50.189254 23.545712 C 50.28296 23.545712 50.370052 23.510434 50.448325 23.439879 C 50.526598 23.369323 50.578412 23.257978 50.602665 23.10474 C 50.629124 22.954809 50.64125 22.711172 50.640148 22.373828 C 50.640148 22.046406 50.629124 21.818203 50.605973 21.687014 C 50.575104 21.533776 50.518881 21.42684 50.436198 21.366207 C 50.354618 21.304471 50.271936 21.273603 50.189254 21.273603 C 50.158386 21.273603 50.126415 21.278012 50.093342 21.287934 C 50.060269 21.296754 50.020582 21.314392 49.97428 21.340851 C 49.926875 21.367309 49.884983 21.413611 49.848603 21.478655 C 49.812223 21.543698 49.785764 21.62638 49.769228 21.724497 C 49.750486 21.852379 49.741667 22.068455 49.741667 22.373828 Z M 49.741667 22.373828 " transform="matrix(7.086614, 0, 0, 7.086614, -103.125, -112.5)"/>
<path fill-rule="nonzero" fill="rgb(0%, 0%, 0%)" fill-opacity="1" stroke-width="0.05" stroke-linecap="butt" stroke-linejoin="round" stroke="rgb(0%, 0%, 0%)" stroke-opacity="1" stroke-miterlimit="4" d="M 64.010426 23.013238 C 64.010426 22.75086 64.1802 22.533681 64.518646 22.363906 C 64.373125 22.264688 64.287136 22.201849 64.260677 22.173186 C 64.157049 22.058533 64.105235 21.928446 64.105235 21.78513 C 64.105235 21.620868 64.168073 21.481962 64.292648 21.367309 C 64.417223 21.252656 64.568256 21.196432 64.744644 21.196432 C 64.913316 21.196432 65.062144 21.244939 65.188924 21.343056 C 65.316806 21.44007 65.380747 21.566849 65.380747 21.721189 C 65.380747 21.939471 65.237431 22.122474 64.953004 22.269097 C 65.141519 22.385955 65.258377 22.46974 65.302474 22.519349 C 65.417127 22.646129 65.475556 22.791649 65.475556 22.952604 C 65.475556 23.14112 65.402796 23.29987 65.258377 23.429957 C 65.113959 23.558941 64.940877 23.622882 64.741337 23.622882 C 64.546207 23.622882 64.37533 23.566658 64.229809 23.453108 C 64.084289 23.339557 64.010426 23.192934 64.010426 23.013238 Z M 64.186815 23.013238 C 64.186815 23.158759 64.240834 23.281129 64.351077 23.378142 C 64.460217 23.476259 64.591407 23.524766 64.744644 23.524766 C 64.89237 23.524766 65.022457 23.482873 65.1327 23.397986 C 65.244046 23.313099 65.299167 23.207266 65.299167 23.080486 C 65.299167 23.030877 65.29145 22.985677 65.273811 22.942682 C 65.257275 22.90079 65.233021 22.862205 65.199948 22.82803 C 65.167978 22.793854 65.141519 22.769601 65.120573 22.754167 C 65.10073 22.738733 65.072066 22.717787 65.034584 22.691328 L 64.600226 22.417925 C 64.324618 22.570061 64.186815 22.768498 64.186815 23.013238 Z M 64.260677 21.647327 C 64.260677 21.759774 64.320209 21.855686 64.438169 21.932856 L 64.875834 22.216181 C 65.108447 22.079479 65.225304 21.914115 65.225304 21.721189 C 65.225304 21.596615 65.1779 21.491884 65.081988 21.409202 C 64.987179 21.325417 64.873629 21.283524 64.741337 21.283524 C 64.61125 21.283524 64.498802 21.3177 64.403993 21.38605 C 64.308082 21.454401 64.260677 21.541493 64.260677 21.647327 Z M 64.260677 21.647327 " transform="matrix(7.086614, 0, 0, 7.086614, -103.125, -112.5)"/>
<path fill-rule="nonzero" fill="rgb(0%, 0%, 0%)" fill-opacity="1" stroke-width="0.05" stroke-linecap="butt" stroke-linejoin="round" stroke="rgb(0%, 0%, 0%)" stroke-opacity="1" stroke-miterlimit="4" d="M 34.93382 44.750964 C 34.93382 44.707969 34.936025 44.680408 34.940434 44.668282 C 34.944844 44.656155 34.955868 44.639618 34.973507 44.619775 L 35.6504 43.865712 C 35.897344 43.5879 36.020816 43.327726 36.020816 43.085191 C 36.020816 42.927544 35.980026 42.793047 35.898446 42.680599 C 35.815764 42.568151 35.700009 42.511927 35.548976 42.511927 C 35.445347 42.511927 35.350538 42.542795 35.263446 42.606736 C 35.176354 42.669575 35.112413 42.757769 35.071623 42.870217 C 35.07934 42.868012 35.094775 42.86691 35.119028 42.86691 C 35.177457 42.86691 35.222656 42.884549 35.255729 42.922032 C 35.288802 42.958412 35.304236 43.001407 35.304236 43.051016 C 35.304236 43.113854 35.284393 43.161259 35.243603 43.191025 C 35.202813 43.221893 35.162023 43.237327 35.122335 43.237327 C 35.105799 43.237327 35.087057 43.235122 35.066111 43.231814 C 35.045165 43.228507 35.017604 43.209766 34.984531 43.177795 C 34.951459 43.144722 34.93382 43.099523 34.93382 43.039992 C 34.93382 42.875729 34.996658 42.729106 35.121233 42.597917 C 35.245807 42.466728 35.403455 42.401684 35.594176 42.401684 C 35.810252 42.401684 35.988846 42.465625 36.131059 42.593507 C 36.27217 42.721389 36.343828 42.885651 36.343828 43.085191 C 36.343828 43.155747 36.332804 43.221893 36.311858 43.285834 C 36.289809 43.349775 36.265556 43.405999 36.236893 43.455608 C 36.209332 43.505217 36.157518 43.569158 36.08145 43.648533 C 36.005382 43.727908 35.937031 43.795157 35.876398 43.85138 C 35.815764 43.907604 35.716545 43.995799 35.579844 44.114861 L 35.20612 44.478663 L 35.842222 44.478663 C 36.048377 44.478663 36.159722 44.469844 36.176259 44.451103 C 36.19941 44.41803 36.224766 44.313299 36.253429 44.138012 L 36.343828 44.138012 L 36.243507 44.750964 Z M 34.93382 44.750964 " transform="matrix(7.086614, 0, 0, 7.086614, -103.125, -112.5)"/>
<path fill-rule="nonzero" fill="rgb(0%, 0%, 0%)" fill-opacity="1" stroke-width="0.05" stroke-linecap="butt" stroke-linejoin="round" stroke="rgb(0%, 0%, 0%)" stroke-opacity="1" stroke-miterlimit="4" d="M 49.458342 54.820565 C 49.458342 54.750009 49.479288 54.698195 49.518976 54.665122 C 49.559766 54.632049 49.604966 54.615512 49.65678 54.615512 C 49.710799 54.615512 49.757101 54.633151 49.795686 54.667327 C 49.834271 54.702604 49.853012 54.751111 49.853012 54.811745 C 49.853012 54.876789 49.830964 54.928603 49.784662 54.964983 C 49.739462 55.001363 49.685443 55.015695 49.6204 55.005773 C 49.676624 55.100582 49.757101 55.168933 49.860729 55.210825 C 49.964358 55.25382 50.064679 55.274766 50.161693 55.274766 C 50.263117 55.274766 50.354618 55.231771 50.436198 55.143577 C 50.518881 55.056485 50.55967 54.906554 50.55967 54.692683 C 50.55967 54.510782 50.524393 54.368568 50.453837 54.263837 C 50.383282 54.159106 50.278551 54.107292 50.139644 54.107292 L 49.984202 54.107292 C 49.948924 54.107292 49.925773 54.105087 49.914749 54.10178 C 49.904827 54.098473 49.899315 54.087448 49.899315 54.067604 C 49.899315 54.044453 49.918056 54.031224 49.953334 54.025712 C 49.988611 54.025712 50.034913 54.022405 50.091137 54.01579 C 50.227839 54.011381 50.33257 53.949644 50.404228 53.831684 C 50.470374 53.721441 50.502344 53.588047 50.502344 53.4304 C 50.502344 53.287084 50.468169 53.184558 50.399818 53.123924 C 50.331467 53.064393 50.253195 53.033525 50.165 53.033525 C 50.082318 53.033525 49.995226 53.051164 49.904827 53.085339 C 49.814427 53.119514 49.743872 53.175738 49.694262 53.252908 C 49.840886 53.252908 49.913646 53.31244 49.913646 53.4304 C 49.913646 53.482214 49.89711 53.524106 49.864037 53.558282 C 49.832066 53.592457 49.787969 53.608993 49.73395 53.608993 C 49.682136 53.608993 49.639141 53.592457 49.604966 53.560486 C 49.57079 53.527414 49.553151 53.483316 49.553151 53.427092 C 49.553151 53.292596 49.613785 53.179045 49.73395 53.085339 C 49.854115 52.992735 50.001841 52.946433 50.179332 52.946433 C 50.353516 52.946433 50.505651 52.991632 50.634636 53.084236 C 50.76362 53.175738 50.828663 53.292596 50.828663 53.433707 C 50.828663 53.572613 50.782361 53.699393 50.69086 53.812943 C 50.598256 53.926493 50.479193 54.006971 50.333672 54.053273 C 50.513368 54.089653 50.655582 54.167926 50.762518 54.289193 C 50.869453 54.41046 50.923473 54.544957 50.923473 54.692683 C 50.923473 54.876789 50.850712 55.035539 50.706294 55.171137 C 50.561875 55.305634 50.383282 55.372882 50.171615 55.372882 C 49.976485 55.372882 49.808915 55.319966 49.668907 55.215235 C 49.528898 55.109401 49.458342 54.97711 49.458342 54.820565 Z M 49.458342 54.820565 " transform="matrix(7.086614, 0, 0, 7.086614, -103.125, -112.5)"/>
<path fill-rule="nonzero" fill="rgb(0%, 0%, 0%)" fill-opacity="1" stroke-width="0.05" stroke-linecap="butt" stroke-linejoin="round" stroke="rgb(0%, 0%, 0%)" stroke-opacity="1" stroke-miterlimit="4" d="M 64.06665 53.654193 L 64.181302 52.928794 L 64.269497 52.928794 C 64.276111 52.957457 64.286033 52.978403 64.29816 52.991632 C 64.310287 53.003759 64.349974 53.015886 64.417223 53.025808 C 64.484471 53.035729 64.585894 53.041242 64.722596 53.041242 L 65.579184 53.041242 C 65.579184 53.095261 65.56816 53.137153 65.547214 53.165816 L 65.070964 53.834992 C 64.96954 53.976103 64.89678 54.177848 64.85158 54.438021 C 64.825122 54.612205 64.812995 54.806233 64.814098 55.016797 L 64.814098 55.196493 C 64.814098 55.32658 64.760079 55.390521 64.650938 55.390521 C 64.5429 55.390521 64.488881 55.325478 64.488881 55.196493 C 64.488881 54.747804 64.633299 54.304627 64.922136 53.870269 C 64.953004 53.82507 65.025764 53.722544 65.140417 53.562691 C 65.25507 53.403941 65.313499 53.320157 65.319011 53.313542 L 64.588099 53.313542 C 64.374228 53.313542 64.259575 53.320157 64.241936 53.334488 C 64.218785 53.355434 64.190122 53.461268 64.153742 53.654193 Z M 64.06665 53.654193 " transform="matrix(7.086614, 0, 0, 7.086614, -103.125, -112.5)"/>
<path fill-rule="nonzero" fill="rgb(0%, 0%, 0%)" fill-opacity="1" stroke-width="0.05" stroke-linecap="butt" stroke-linejoin="round" stroke="rgb(0%, 0%, 0%)" stroke-opacity="1" stroke-miterlimit="4" d="M 49.458342 43.597821 C 49.458342 43.228507 49.553151 42.929749 49.741667 42.702648 C 49.930183 42.475547 50.145157 42.363099 50.387691 42.363099 C 50.528802 42.363099 50.637943 42.398377 50.717318 42.470035 C 50.795591 42.541693 50.835278 42.633195 50.835278 42.743438 C 50.835278 42.804071 50.817639 42.848169 50.781259 42.874627 C 50.745981 42.901085 50.709601 42.914314 50.673221 42.914314 C 50.630226 42.914314 50.592743 42.899983 50.55967 42.87132 C 50.526598 42.842656 50.510061 42.801867 50.510061 42.750052 C 50.510061 42.644219 50.574002 42.592405 50.704089 42.592405 C 50.643455 42.497596 50.539827 42.450191 50.394306 42.450191 C 50.349106 42.450191 50.303907 42.456806 50.257604 42.470035 C 50.212405 42.483264 50.159488 42.511927 50.099957 42.556025 C 50.040426 42.599019 49.987509 42.655243 49.941207 42.724696 C 49.894905 42.793047 49.85632 42.892266 49.824349 43.022353 C 49.792379 43.152439 49.775842 43.301268 49.775842 43.469939 L 49.775842 43.554827 C 49.871754 43.322214 50.019479 43.205356 50.216815 43.206459 C 50.41415 43.206459 50.581719 43.282526 50.71842 43.432457 C 50.855122 43.582387 50.923473 43.769801 50.923473 43.992492 C 50.923473 44.220695 50.851815 44.411415 50.709601 44.562448 C 50.567387 44.714584 50.395408 44.789549 50.195868 44.789549 C 50.106571 44.789549 50.021684 44.770808 49.940104 44.734427 C 49.859627 44.696945 49.781354 44.635209 49.706389 44.550321 C 49.631424 44.465434 49.57079 44.341962 49.525591 44.178802 C 49.481493 44.015643 49.458342 43.821615 49.458342 43.597821 Z M 49.782457 43.915321 C 49.782457 44.145729 49.803403 44.316606 49.846398 44.426849 C 49.853012 44.444488 49.864037 44.466537 49.879471 44.491893 C 49.894905 44.517249 49.916953 44.545912 49.943412 44.578985 C 49.970973 44.612058 50.00625 44.638516 50.05145 44.659462 C 50.09665 44.680408 50.144054 44.691433 50.195868 44.691433 C 50.353516 44.691433 50.470374 44.615365 50.545339 44.462127 C 50.586129 44.37724 50.605973 44.219592 50.605973 43.989184 C 50.605973 43.753264 50.585026 43.592309 50.542032 43.50632 C 50.470374 43.360799 50.360131 43.288038 50.213507 43.288038 C 50.114288 43.288038 50.030504 43.322214 49.962153 43.389462 C 49.893802 43.45671 49.8475 43.536085 49.821042 43.627587 C 49.795686 43.717986 49.782457 43.813898 49.782457 43.915321 Z M 49.782457 43.915321 " transform="matrix(7.086614, 0, 0, 7.086614, -103.125, -112.5)"/>
<path fill-rule="nonzero" fill="rgb(0%, 0%, 0%)" fill-opacity="1" stroke-width="0.05" stroke-linecap="butt" stroke-linejoin="round" stroke="rgb(0%, 0%, 0%)" stroke-opacity="1" stroke-miterlimit="4" d="M 34.883108 53.654193 L 34.997761 52.928794 L 35.085955 52.928794 C 35.09257 52.957457 35.102492 52.978403 35.114618 52.991632 C 35.126745 53.003759 35.166432 53.015886 35.233681 53.025808 C 35.300929 53.035729 35.402353 53.041242 35.539054 53.041242 L 36.395643 53.041242 C 36.395643 53.095261 36.384618 53.137153 36.363672 53.165816 L 35.887422 53.834992 C 35.785998 53.976103 35.713238 54.177848 35.668038 54.438021 C 35.64158 54.612205 35.629453 54.806233 35.630556 55.016797 L 35.630556 55.196493 C 35.630556 55.32658 35.576537 55.390521 35.467396 55.390521 C 35.359358 55.390521 35.305339 55.325478 35.305339 55.196493 C 35.305339 54.747804 35.449757 54.304627 35.738594 53.870269 C 35.769462 53.82507 35.842222 53.722544 35.956875 53.562691 C 36.071528 53.403941 36.129957 53.320157 36.135469 53.313542 L 35.404557 53.313542 C 35.190686 53.313542 35.076033 53.320157 35.058394 53.334488 C 35.035243 53.355434 35.00658 53.461268 34.9702 53.654193 Z M 34.883108 53.654193 " transform="matrix(7.086614, 0, 0, 7.086614, -103.125, -112.5)"/>
<path fill-rule="nonzero" fill="rgb(0%, 0%, 0%)" fill-opacity="1" stroke-width="0.05" stroke-linecap="butt" stroke-linejoin="round" stroke="rgb(0%, 0%, 0%)" stroke-opacity="1" stroke-miterlimit="4" d="M 49.608273 32.15349 L 49.608273 32.043247 C 49.891598 32.043247 50.105469 31.968281 50.25099 31.818351 C 50.29178 31.818351 50.314931 31.822761 50.321545 31.83158 C 50.32816 31.840399 50.33257 31.866858 50.33257 31.909853 L 50.33257 33.888715 C 50.33257 33.958169 50.349106 34.004471 50.384384 34.026519 C 50.418559 34.048568 50.511163 34.059592 50.661094 34.059592 L 50.773542 34.059592 L 50.773542 34.16763 C 50.69086 34.161016 50.500139 34.157709 50.201381 34.157709 C 49.902622 34.157709 49.713004 34.161016 49.631424 34.16763 L 49.631424 34.059592 L 49.742769 34.059592 C 49.891598 34.059592 49.983099 34.048568 50.018377 34.027622 C 50.053655 34.005573 50.072396 33.959271 50.072396 33.888715 L 50.072396 32.060886 C 49.948924 32.122622 49.794584 32.15349 49.608273 32.15349 Z M 49.608273 32.15349 " transform="matrix(7.086614, 0, 0, 7.086614, -103.125, -112.5)"/>
<path fill="none" stroke-width="0.2" stroke-linecap="butt" stroke-linejoin="round" stroke="rgb(0%, 0%, 0%)" stroke-opacity="1" stroke-miterlimit="4" d="M 22.489583 22.489583 C 31.129332 22.489583 31.129332 22.489583 31.129332 22.489583 " transform="matrix(7.086614, 0, 0, 7.086614, -103.125, -112.5)"/>
<path fill-rule="evenodd" fill="rgb(0%, 0%, 0%)" fill-opacity="1" stroke-width="1.333333" stroke-linecap="butt" stroke-linejoin="round" stroke="rgb(0%, 0%, 0%)" stroke-opacity="1" stroke-miterlimit="4" d="M 5.775181 0.00000538296 L -2.878892 5.005036 L -2.878892 -5.005025 Z M 5.775181 0.00000538296 " transform="matrix(0.708662, 0, 0, 0.708662, 117.477661, 46.874996)"/>
<path fill="none" stroke-width="0.2" stroke-linecap="butt" stroke-linejoin="round" stroke="rgb(0%, 0%, 0%)" stroke-opacity="1" stroke-miterlimit="4" d="M 22.581085 33.072917 C 31.220834 33.072917 31.220834 33.072917 31.220834 33.072917 " transform="matrix(7.086614, 0, 0, 7.086614, -103.125, -112.5)"/>
<path fill-rule="evenodd" fill="rgb(0%, 0%, 0%)" fill-opacity="1" stroke-width="1.333333" stroke-linecap="butt" stroke-linejoin="round" stroke="rgb(0%, 0%, 0%)" stroke-opacity="1" stroke-miterlimit="4" d="M 5.765707 -0.0000107659 L -2.877341 5.00502 L -2.877341 -5.005042 Z M 5.765707 -0.0000107659 " transform="matrix(0.708662, 0, 0, 0.708662, 118.125, 121.875008)"/>
<path fill="none" stroke-width="0.2" stroke-linecap="butt" stroke-linejoin="round" stroke="rgb(0%, 0%, 0%)" stroke-opacity="1" stroke-miterlimit="4" d="M 39.6875 21.874427 C 45.471953 21.874427 45.471953 21.874427 45.471953 21.874427 " transform="matrix(7.086614, 0, 0, 7.086614, -103.125, -112.5)"/>
<path fill-rule="evenodd" fill="rgb(0%, 0%, 0%)" fill-opacity="1" stroke-width="1.333333" stroke-linecap="butt" stroke-linejoin="round" stroke="rgb(0%, 0%, 0%)" stroke-opacity="1" stroke-miterlimit="4" d="M 5.773566 0.0038219 L -2.880507 4.997828 L -2.880507 -5.001209 Z M 5.773566 0.0038219 " transform="matrix(0.708662, 0, 0, 0.708662, 219.119431, 42.512917)"/>
<path fill="none" stroke-width="0.2" stroke-linecap="butt" stroke-linejoin="round" stroke="rgb(0%, 0%, 0%)" stroke-opacity="1" stroke-miterlimit="4" d="M 39.6875 33.072917 C 45.471953 33.072917 45.471953 33.072917 45.471953 33.072917 " transform="matrix(7.086614, 0, 0, 7.086614, -103.125, -112.5)"/>
<path fill-rule="evenodd" fill="rgb(0%, 0%, 0%)" fill-opacity="1" stroke-width="1.333333" stroke-linecap="butt" stroke-linejoin="round" stroke="rgb(0%, 0%, 0%)" stroke-opacity="1" stroke-miterlimit="4" d="M 5.773566 0 L -2.880507 5.005031 L -2.880507 -5.005031 Z M 5.773566 0 " transform="matrix(0.708662, 0, 0, 0.708662, 219.119431, 121.875)"/>
<path fill="none" stroke-width="0.2" stroke-linecap="butt" stroke-linejoin="round" stroke="rgb(0%, 0%, 0%)" stroke-opacity="1" stroke-miterlimit="4" d="M 54.239584 21.874427 C 60.024037 21.874427 60.024037 21.874427 60.024037 21.874427 " transform="matrix(7.086614, 0, 0, 7.086614, -103.125, -112.5)"/>
<path fill-rule="evenodd" fill="rgb(0%, 0%, 0%)" fill-opacity="1" stroke-width="1.333333" stroke-linecap="butt" stroke-linejoin="round" stroke="rgb(0%, 0%, 0%)" stroke-opacity="1" stroke-miterlimit="4" d="M 5.773588 0.0038219 L -2.880485 4.997828 L -2.880485 -5.001209 Z M 5.773588 0.0038219 " transform="matrix(0.708662, 0, 0, 0.708662, 322.244415, 42.512917)"/>
<path fill="none" stroke-width="0.2" stroke-linecap="butt" stroke-linejoin="round" stroke="rgb(0%, 0%, 0%)" stroke-opacity="1" stroke-miterlimit="4" d="M 39.6875 43.65625 C 45.471953 43.65625 45.471953 43.65625 45.471953 43.65625 " transform="matrix(7.086614, 0, 0, 7.086614, -103.125, -112.5)"/>
<path fill-rule="evenodd" fill="rgb(0%, 0%, 0%)" fill-opacity="1" stroke-width="1.333333" stroke-linecap="butt" stroke-linejoin="round" stroke="rgb(0%, 0%, 0%)" stroke-opacity="1" stroke-miterlimit="4" d="M 5.773566 -0.0000215318 L -2.880507 5.005009 L -2.880507 -5.005052 Z M 5.773566 -0.0000215318 " transform="matrix(0.708662, 0, 0, 0.708662, 219.119431, 196.875015)"/>
<path fill="none" stroke-width="0.2" stroke-linecap="butt" stroke-linejoin="round" stroke="rgb(0%, 0%, 0%)" stroke-opacity="1" stroke-miterlimit="4" d="M 39.6875 54.325573 C 45.471953 54.325573 45.471953 54.325573 45.471953 54.325573 " transform="matrix(7.086614, 0, 0, 7.086614, -103.125, -112.5)"/>
<path fill-rule="evenodd" fill="rgb(0%, 0%, 0%)" fill-opacity="1" stroke-width="1.333333" stroke-linecap="butt" stroke-linejoin="round" stroke="rgb(0%, 0%, 0%)" stroke-opacity="1" stroke-miterlimit="4" d="M 5.773566 -0.00383267 L -2.880507 5.001198 L -2.880507 -4.997839 Z M 5.773566 -0.00383267 " transform="matrix(0.708662, 0, 0, 0.708662, 219.119431, 272.487091)"/>
<path fill="none" stroke-width="0.2" stroke-linecap="butt" stroke-linejoin="round" stroke="rgb(0%, 0%, 0%)" stroke-opacity="1" stroke-miterlimit="4" d="M 54.239584 54.239584 C 60.024037 54.239584 60.024037 54.239584 60.024037 54.239584 " transform="matrix(7.086614, 0, 0, 7.086614, -103.125, -112.5)"/>
<path fill-rule="evenodd" fill="rgb(0%, 0%, 0%)" fill-opacity="1" stroke-width="1.333333" stroke-linecap="butt" stroke-linejoin="round" stroke="rgb(0%, 0%, 0%)" stroke-opacity="1" stroke-miterlimit="4" d="M 5.773588 0 L -2.880485 5.005031 L -2.880485 -5.005031 Z M 5.773588 0 " transform="matrix(0.708662, 0, 0, 0.708662, 322.244415, 271.875)"/>
<g clip-path="url(#clip-0)">
<path fill="none" stroke-width="0.25" stroke-linecap="butt" stroke-linejoin="miter" stroke="rgb(0%, 0%, 0%)" stroke-opacity="1" stroke-miterlimit="4" d="M 62.798855 18.520833 L 66.687127 18.520833 C 67.760894 18.520833 68.631815 19.594601 68.631815 20.465521 L 68.631815 24.353794 C 68.631815 25.427561 67.760894 26.298481 66.687127 26.298481 L 62.798855 26.298481 C 61.725087 26.298481 60.854167 25.224714 60.854167 24.353794 L 60.854167 20.465521 C 60.854167 19.391754 61.725087 18.520833 62.798855 18.520833 Z M 62.798855 18.520833 " transform="matrix(7.086614, 0, 0, 7.086614, -103.125, -112.5)"/>
</g>
<path fill="none" stroke-width="0.25" stroke-linecap="butt" stroke-linejoin="miter" stroke="rgb(0%, 0%, 0%)" stroke-opacity="1" stroke-miterlimit="4" d="M 33.694688 29.104167 L 37.58296 29.104167 C 38.656728 29.104167 39.527648 30.177934 39.527648 31.048854 L 39.527648 34.937127 C 39.527648 36.010894 38.656728 36.881814 37.58296 36.881814 L 33.694688 36.881814 C 32.62092 36.881814 31.75 35.808047 31.75 34.937127 L 31.75 31.048854 C 31.75 29.975087 32.62092 29.104167 33.694688 29.104167 Z M 33.694688 29.104167 " transform="matrix(7.086614, 0, 0, 7.086614, -103.125, -112.5)"/>
<path fill="none" stroke-width="0.25" stroke-linecap="butt" stroke-linejoin="miter" stroke="rgb(0%, 0%, 0%)" stroke-opacity="1" stroke-miterlimit="4" d="M 33.694688 39.6875 L 37.58296 39.6875 C 38.656728 39.6875 39.527648 40.761268 39.527648 41.632188 L 39.527648 45.52046 C 39.527648 46.594228 38.656728 47.465148 37.58296 47.465148 L 33.694688 47.465148 C 32.62092 47.465148 31.75 46.39138 31.75 45.52046 L 31.75 41.632188 C 31.75 40.55842 32.62092 39.6875 33.694688 39.6875 Z M 33.694688 39.6875 " transform="matrix(7.086614, 0, 0, 7.086614, -103.125, -112.5)"/>
<path fill="none" stroke-width="0.25" stroke-linecap="butt" stroke-linejoin="miter" stroke="rgb(0%, 0%, 0%)" stroke-opacity="1" stroke-miterlimit="4" d="M 48.246771 29.104167 L 52.135044 29.104167 C 53.208811 29.104167 54.079731 30.177934 54.079731 31.048854 L 54.079731 34.937127 C 54.079731 36.010894 53.208811 36.881814 52.135044 36.881814 L 48.246771 36.881814 C 47.173004 36.881814 46.302084 35.808047 46.302084 34.937127 L 46.302084 31.048854 C 46.302084 29.975087 47.173004 29.104167 48.246771 29.104167 Z M 48.246771 29.104167 " transform="matrix(7.086614, 0, 0, 7.086614, -103.125, -112.5)"/>
<path fill="none" stroke-width="0.25" stroke-linecap="butt" stroke-linejoin="miter" stroke="rgb(0%, 0%, 0%)" stroke-opacity="1" stroke-miterlimit="4" d="M 48.246771 39.6875 L 52.135044 39.6875 C 53.208811 39.6875 54.079731 40.761268 54.079731 41.632188 L 54.079731 45.52046 C 54.079731 46.594228 53.208811 47.465148 52.135044 47.465148 L 48.246771 47.465148 C 47.173004 47.465148 46.302084 46.39138 46.302084 45.52046 L 46.302084 41.632188 C 46.302084 40.55842 47.173004 39.6875 48.246771 39.6875 Z M 48.246771 39.6875 " transform="matrix(7.086614, 0, 0, 7.086614, -103.125, -112.5)"/>
<path fill="none" stroke-width="0.25" stroke-linecap="butt" stroke-linejoin="miter" stroke="rgb(0%, 0%, 0%)" stroke-opacity="1" stroke-miterlimit="4" d="M 33.694688 50.270834 L 37.58296 50.270834 C 38.656728 50.270834 39.527648 51.344601 39.527648 52.215521 L 39.527648 56.103794 C 39.527648 57.177561 38.656728 58.048481 37.58296 58.048481 L 33.694688 58.048481 C 32.62092 58.048481 31.75 56.974714 31.75 56.103794 L 31.75 52.215521 C 31.75 51.141754 32.62092 50.270834 33.694688 50.270834 Z M 33.694688 50.270834 " transform="matrix(7.086614, 0, 0, 7.086614, -103.125, -112.5)"/>
<path fill="none" stroke-width="0.25" stroke-linecap="butt" stroke-linejoin="miter" stroke="rgb(0%, 0%, 0%)" stroke-opacity="1" stroke-miterlimit="4" d="M 48.246771 50.270834 L 52.135044 50.270834 C 53.208811 50.270834 54.079731 51.344601 54.079731 52.215521 L 54.079731 56.103794 C 54.079731 57.177561 53.208811 58.048481 52.135044 58.048481 L 48.246771 58.048481 C 47.173004 58.048481 46.302084 56.974714 46.302084 56.103794 L 46.302084 52.215521 C 46.302084 51.141754 47.173004 50.270834 48.246771 50.270834 Z M 48.246771 50.270834 " transform="matrix(7.086614, 0, 0, 7.086614, -103.125, -112.5)"/>
<g clip-path="url(#clip-1)">
<path fill="none" stroke-width="0.25" stroke-linecap="butt" stroke-linejoin="miter" stroke="rgb(0%, 0%, 0%)" stroke-opacity="1" stroke-miterlimit="4" d="M 62.87823 50.270834 L 66.766502 50.270834 C 67.840269 50.270834 68.71119 51.344601 68.71119 52.215521 L 68.71119 56.103794 C 68.71119 57.177561 67.840269 58.048481 66.766502 58.048481 L 62.87823 58.048481 C 61.804462 58.048481 60.933542 56.974714 60.933542 56.103794 L 60.933542 52.215521 C 60.933542 51.141754 61.804462 50.270834 62.87823 50.270834 Z M 62.87823 50.270834 " transform="matrix(7.086614, 0, 0, 7.086614, -103.125, -112.5)"/>
</g>
<path fill="none" stroke-width="0.2" stroke-linecap="butt" stroke-linejoin="round" stroke="rgb(0%, 0%, 0%)" stroke-opacity="1" stroke-miterlimit="4" d="M 22.489583 43.65625 C 31.129332 43.65625 31.129332 43.65625 31.129332 43.65625 " transform="matrix(7.086614, 0, 0, 7.086614, -103.125, -112.5)"/>
<path fill-rule="evenodd" fill="rgb(0%, 0%, 0%)" fill-opacity="1" stroke-width="1.333333" stroke-linecap="butt" stroke-linejoin="round" stroke="rgb(0%, 0%, 0%)" stroke-opacity="1" stroke-miterlimit="4" d="M 5.775192 -0.0000215318 L -2.878881 5.005009 L -2.878881 -5.005052 Z M 5.775192 -0.0000215318 " transform="matrix(0.708662, 0, 0, 0.708662, 117.477654, 196.875015)"/>
<path fill="none" stroke-width="0.2" stroke-linecap="butt" stroke-linejoin="round" stroke="rgb(0%, 0%, 0%)" stroke-opacity="1" stroke-miterlimit="4" d="M 22.489583 54.239584 C 31.129332 54.239584 31.129332 54.239584 31.129332 54.239584 " transform="matrix(7.086614, 0, 0, 7.086614, -103.125, -112.5)"/>
<path fill-rule="evenodd" fill="rgb(0%, 0%, 0%)" fill-opacity="1" stroke-width="1.333333" stroke-linecap="butt" stroke-linejoin="round" stroke="rgb(0%, 0%, 0%)" stroke-opacity="1" stroke-miterlimit="4" d="M 5.775192 0 L -2.878881 5.005031 L -2.878881 -5.005031 Z M 5.775192 0 " transform="matrix(0.708662, 0, 0, 0.708662, 117.477654, 271.875)"/>
</svg>
