<?xml version="1.0" encoding="UTF-8" standalone="no"?>
<!DOCTYPE svg PUBLIC "-//W3C//DTD SVG 1.1//EN"
 "http://www.w3.org/Graphics/SVG/1.1/DTD/svg11.dtd">
<!-- Generated by graphviz version 12.1.2 (20240928.0832)
 -->
<!-- Pages: 1 -->
<svg width="716pt" height="147pt"
 viewBox="0.00 0.00 716.00 147.00" xmlns="http://www.w3.org/2000/svg" xmlns:xlink="http://www.w3.org/1999/xlink">
<g id="graph0" class="graph" transform="scale(1 1) rotate(0) translate(4 143)">
<polygon fill="white" stroke="none" points="-4,4 -4,-143 712,-143 712,4 -4,4"/>
<!-- T -->
<g id="node1" class="node">
<title>T</title>
<polygon fill="none" stroke="black" points="39.75,-102.5 39.75,-138.5 109.5,-138.5 109.5,-102.5 39.75,-102.5"/>
<text text-anchor="middle" x="52.62" y="-115.7" font-family="Times,serif" font-size="14.00">Ø</text>
<polyline fill="none" stroke="black" points="65.5,-103 65.5,-138.5"/>
<text text-anchor="middle" x="77.62" y="-115.7" font-family="Times,serif" font-size="14.00">T</text>
<polyline fill="none" stroke="black" points="89.75,-103 89.75,-138.5"/>
<text text-anchor="middle" x="99.62" y="-115.7" font-family="Times,serif" font-size="14.00"> </text>
<text text-anchor="middle" x="19.88" y="-88.7" font-family="Times,serif" font-size="14.00">ldc.tete</text>
</g>
<!-- A -->
<g id="node2" class="node">
<title>A</title>
<polygon fill="none" stroke="black" points="145.5,-85.5 145.5,-121.5 207.75,-121.5 207.75,-85.5 145.5,-85.5"/>
<text text-anchor="middle" x="155.38" y="-98.7" font-family="Times,serif" font-size="14.00"> </text>
<polyline fill="none" stroke="black" points="165.25,-86 165.25,-121.5"/>
<text text-anchor="middle" x="176.62" y="-98.7" font-family="Times,serif" font-size="14.00">3</text>
<polyline fill="none" stroke="black" points="188,-86 188,-121.5"/>
<text text-anchor="middle" x="197.88" y="-98.7" font-family="Times,serif" font-size="14.00"> </text>
</g>
<!-- T&#45;&gt;A -->
<g id="edge1" class="edge">
<title>T:c&#45;&gt;A:n</title>
<path fill="none" stroke="black" d="M107.87,-124.31C124.32,-131.07 160.67,-144.1 172.69,-132.89"/>
<ellipse fill="black" stroke="black" cx="103.76" cy="-122.54" rx="4" ry="4"/>
<polygon fill="black" stroke="black" points="175.82,-134.51 176.09,-123.92 169.27,-132.03 175.82,-134.51"/>
</g>
<!-- A&#45;&gt;T -->
<g id="edge2" class="edge">
<title>A:c&#45;&gt;T:s</title>
<path fill="none" stroke="black" d="M147.18,-100.21C130.73,-93.44 94.17,-80.3 81.81,-91.33"/>
<ellipse fill="black" stroke="black" cx="151.24" cy="-101.96" rx="4" ry="4"/>
<polygon fill="black" stroke="black" points="78.56,-90 78.18,-100.59 85.08,-92.56 78.56,-90"/>
</g>
<!-- B -->
<g id="node3" class="node">
<title>B</title>
<polygon fill="none" stroke="black" points="243.75,-68.5 243.75,-104.5 306,-104.5 306,-68.5 243.75,-68.5"/>
<text text-anchor="middle" x="253.62" y="-81.7" font-family="Times,serif" font-size="14.00"> </text>
<polyline fill="none" stroke="black" points="263.5,-69 263.5,-104.5"/>
<text text-anchor="middle" x="274.88" y="-81.7" font-family="Times,serif" font-size="14.00">1</text>
<polyline fill="none" stroke="black" points="286.25,-69 286.25,-104.5"/>
<text text-anchor="middle" x="296.12" y="-81.7" font-family="Times,serif" font-size="14.00"> </text>
</g>
<!-- A&#45;&gt;B -->
<g id="edge3" class="edge">
<title>A:c&#45;&gt;B:n</title>
<path fill="none" stroke="black" d="M206.12,-107.31C222.57,-114.07 258.92,-127.1 270.94,-115.89"/>
<ellipse fill="black" stroke="black" cx="202.01" cy="-105.54" rx="4" ry="4"/>
<polygon fill="black" stroke="black" points="274.07,-117.51 274.34,-106.92 267.52,-115.03 274.07,-117.51"/>
</g>
<!-- B&#45;&gt;A -->
<g id="edge4" class="edge">
<title>B:c&#45;&gt;A:s</title>
<path fill="none" stroke="black" d="M245.51,-83.24C229.21,-76.54 193.01,-63.52 180.76,-74.43"/>
<ellipse fill="black" stroke="black" cx="249.5" cy="-84.96" rx="4" ry="4"/>
<polygon fill="black" stroke="black" points="177.56,-73 177.18,-83.59 184.08,-75.56 177.56,-73"/>
</g>
<!-- C -->
<g id="node4" class="node">
<title>C</title>
<polygon fill="none" stroke="black" points="342,-51.5 342,-87.5 404.25,-87.5 404.25,-51.5 342,-51.5"/>
<text text-anchor="middle" x="351.88" y="-64.7" font-family="Times,serif" font-size="14.00"> </text>
<polyline fill="none" stroke="black" points="361.75,-52 361.75,-87.5"/>
<text text-anchor="middle" x="373.12" y="-64.7" font-family="Times,serif" font-size="14.00">2</text>
<polyline fill="none" stroke="black" points="384.5,-52 384.5,-87.5"/>
<text text-anchor="middle" x="394.38" y="-64.7" font-family="Times,serif" font-size="14.00"> </text>
</g>
<!-- B&#45;&gt;C -->
<g id="edge5" class="edge">
<title>B:c&#45;&gt;C:n</title>
<path fill="none" stroke="black" d="M304.37,-90.31C320.82,-97.07 357.17,-110.1 369.19,-98.89"/>
<ellipse fill="black" stroke="black" cx="300.26" cy="-88.54" rx="4" ry="4"/>
<polygon fill="black" stroke="black" points="372.32,-100.51 372.59,-89.92 365.77,-98.03 372.32,-100.51"/>
</g>
<!-- C&#45;&gt;B -->
<g id="edge7" class="edge">
<title>C:c&#45;&gt;B:s</title>
<path fill="none" stroke="black" d="M343.22,-67.79C328.57,-64.62 298.99,-58.99 284.01,-61.41"/>
<ellipse fill="black" stroke="black" cx="347.49" cy="-68.75" rx="4" ry="4"/>
<polygon fill="black" stroke="black" points="282.16,-58.42 276.1,-67.11 286.26,-64.1 282.16,-58.42"/>
</g>
<!-- D -->
<g id="node5" class="node">
<title>D</title>
<polygon fill="none" stroke="black" points="440.25,-34.5 440.25,-70.5 502.5,-70.5 502.5,-34.5 440.25,-34.5"/>
<text text-anchor="middle" x="450.12" y="-47.7" font-family="Times,serif" font-size="14.00"> </text>
<polyline fill="none" stroke="black" points="460,-35 460,-70.5"/>
<text text-anchor="middle" x="471.38" y="-47.7" font-family="Times,serif" font-size="14.00">4</text>
<polyline fill="none" stroke="black" points="482.75,-35 482.75,-70.5"/>
<text text-anchor="middle" x="492.62" y="-47.7" font-family="Times,serif" font-size="14.00"> </text>
</g>
<!-- C&#45;&gt;D -->
<g id="edge8" class="edge">
<title>C:c&#45;&gt;D:n</title>
<path fill="none" stroke="black" d="M402.62,-73.31C419.07,-80.07 455.42,-93.1 467.44,-81.89"/>
<ellipse fill="black" stroke="black" cx="398.51" cy="-71.54" rx="4" ry="4"/>
<polygon fill="black" stroke="black" points="470.57,-83.51 470.84,-72.92 464.02,-81.03 470.57,-83.51"/>
</g>
<!-- D&#45;&gt;C -->
<g id="edge9" class="edge">
<title>D:c&#45;&gt;C:s</title>
<path fill="none" stroke="black" d="M442.01,-49.24C425.71,-42.54 389.51,-29.52 377.26,-40.43"/>
<ellipse fill="black" stroke="black" cx="446" cy="-50.96" rx="4" ry="4"/>
<polygon fill="black" stroke="black" points="374.06,-39 373.68,-49.59 380.58,-41.56 374.06,-39"/>
</g>
<!-- E -->
<g id="node6" class="node">
<title>E</title>
<polygon fill="none" stroke="black" points="538.5,-17.5 538.5,-53.5 600.75,-53.5 600.75,-17.5 538.5,-17.5"/>
<text text-anchor="middle" x="548.38" y="-30.7" font-family="Times,serif" font-size="14.00"> </text>
<polyline fill="none" stroke="black" points="558.25,-18 558.25,-53.5"/>
<text text-anchor="middle" x="569.62" y="-30.7" font-family="Times,serif" font-size="14.00">7</text>
<polyline fill="none" stroke="black" points="581,-18 581,-53.5"/>
<text text-anchor="middle" x="590.88" y="-30.7" font-family="Times,serif" font-size="14.00"> </text>
</g>
<!-- D&#45;&gt;E -->
<g id="edge10" class="edge">
<title>D:c&#45;&gt;E:n</title>
<path fill="none" stroke="black" d="M500.87,-56.31C517.32,-63.07 553.67,-76.1 565.69,-64.89"/>
<ellipse fill="black" stroke="black" cx="496.76" cy="-54.54" rx="4" ry="4"/>
<polygon fill="black" stroke="black" points="568.82,-66.51 569.09,-55.92 562.27,-64.03 568.82,-66.51"/>
</g>
<!-- E&#45;&gt;D -->
<g id="edge11" class="edge">
<title>E:c&#45;&gt;D:s</title>
<path fill="none" stroke="black" d="M540.26,-32.24C523.96,-25.54 487.76,-12.52 475.51,-23.43"/>
<ellipse fill="black" stroke="black" cx="544.25" cy="-33.96" rx="4" ry="4"/>
<polygon fill="black" stroke="black" points="472.31,-22 471.93,-32.59 478.83,-24.56 472.31,-22"/>
</g>
<!-- Q -->
<g id="node7" class="node">
<title>Q</title>
<polygon fill="none" stroke="black" points="636.75,-0.5 636.75,-36.5 708,-36.5 708,-0.5 636.75,-0.5"/>
<text text-anchor="middle" x="646.62" y="-13.7" font-family="Times,serif" font-size="14.00"> </text>
<polyline fill="none" stroke="black" points="656.5,-1 656.5,-36.5"/>
<text text-anchor="middle" x="669.38" y="-13.7" font-family="Times,serif" font-size="14.00">Q</text>
<polyline fill="none" stroke="black" points="682.25,-1 682.25,-36.5"/>
<text text-anchor="middle" x="695.12" y="-13.7" font-family="Times,serif" font-size="14.00">Ø</text>
</g>
<!-- E&#45;&gt;Q -->
<g id="edge12" class="edge">
<title>E:c&#45;&gt;Q:n</title>
<path fill="none" stroke="black" d="M598.98,-39.26C615.59,-46.09 652.97,-59.57 665.32,-48.13"/>
<ellipse fill="black" stroke="black" cx="595" cy="-37.54" rx="4" ry="4"/>
<polygon fill="black" stroke="black" points="668.54,-49.51 668.84,-38.91 662,-47.01 668.54,-49.51"/>
<text text-anchor="middle" x="671.53" y="-62.37" font-family="Times,serif" font-size="14.00">ldc.queue</text>
</g>
<!-- Q&#45;&gt;E -->
<g id="edge13" class="edge">
<title>Q:c&#45;&gt;E:s</title>
<path fill="none" stroke="black" d="M638.51,-15.24C622.21,-8.54 586.01,4.48 573.76,-6.43"/>
<ellipse fill="black" stroke="black" cx="642.5" cy="-16.96" rx="4" ry="4"/>
<polygon fill="black" stroke="black" points="570.56,-5 570.18,-15.59 577.08,-7.56 570.56,-5"/>
</g>
<!-- P -->
<g id="node8" class="node">
<title>P</title>
<text text-anchor="middle" x="274.88" y="-26.45" font-family="Times,serif" font-size="14.00" fill="red">ptr</text>
</g>
<!-- P&#45;&gt;C -->
<g id="edge6" class="edge">
<title>P:c&#45;&gt;C:s</title>
<path fill="none" stroke="red" d="M313.07,-28.15C332.34,-28.55 351.88,-33.32 351.88,-51"/>
<polygon fill="red" stroke="red" points="313.05,-24.65 303.12,-28.35 313.18,-31.65 313.05,-24.65"/>
</g>
</g>
</svg>
