<?xml version="1.0" encoding="UTF-8" standalone="no"?>
<!DOCTYPE svg PUBLIC "-//W3C//DTD SVG 1.1//EN"
 "http://www.w3.org/Graphics/SVG/1.1/DTD/svg11.dtd">
<!-- Generated by graphviz version 12.1.2 (20240928.0832)
 -->
<!-- Pages: 1 -->
<svg width="263pt" height="664pt"
 viewBox="0.00 0.00 263.46 663.50" xmlns="http://www.w3.org/2000/svg" xmlns:xlink="http://www.w3.org/1999/xlink">
<g id="graph0" class="graph" transform="scale(1 1) rotate(0) translate(4 659.5)">
<polygon fill="white" stroke="none" points="-4,4 -4,-659.5 259.46,-659.5 259.46,4 -4,4"/>
<!-- let -->
<g id="node1" class="node">
<title>let</title>
<ellipse fill="none" stroke="black" cx="228.46" cy="-460.5" rx="27" ry="18"/>
<text text-anchor="middle" x="228.46" y="-455.45" font-family="Times,serif" font-size="14.00">let</text>
</g>
<!-- s -->
<g id="node2" class="node">
<title>s</title>
<ellipse fill="none" stroke="black" cx="228.46" cy="-372" rx="27" ry="18"/>
<text text-anchor="middle" x="228.46" y="-366.95" font-family="Times,serif" font-size="14.00">s</text>
</g>
<!-- let&#45;&gt;s -->
<g id="edge1" class="edge">
<title>let&#45;&gt;s</title>
<path fill="none" stroke="black" d="M228.46,-442.41C228.46,-430.76 228.46,-415.05 228.46,-401.52"/>
<polygon fill="black" stroke="black" points="231.96,-401.86 228.46,-391.86 224.96,-401.86 231.96,-401.86"/>
<text text-anchor="middle" x="231.84" y="-411.2" font-family="Times,serif" font-size="14.00">1</text>
</g>
<!-- go -->
<g id="node10" class="node">
<title>go</title>
<ellipse fill="none" stroke="black" cx="228.46" cy="-283.5" rx="27" ry="18"/>
<text text-anchor="middle" x="228.46" y="-278.45" font-family="Times,serif" font-size="14.00">go</text>
</g>
<!-- s&#45;&gt;go -->
<g id="edge12" class="edge">
<title>s&#45;&gt;go</title>
<path fill="none" stroke="black" d="M228.46,-353.91C228.46,-342.26 228.46,-326.55 228.46,-313.02"/>
<polygon fill="black" stroke="black" points="231.96,-313.36 228.46,-303.36 224.96,-313.36 231.96,-313.36"/>
<text text-anchor="middle" x="231.84" y="-322.7" font-family="Times,serif" font-size="14.00">1</text>
</g>
<!-- gabba -->
<g id="node3" class="node">
<title>gabba</title>
<ellipse fill="none" stroke="black" cx="125.46" cy="-549" rx="32.93" ry="18"/>
<text text-anchor="middle" x="125.46" y="-543.95" font-family="Times,serif" font-size="14.00">gabba</text>
</g>
<!-- gabba&#45;&gt;gabba -->
<g id="edge2" class="edge">
<title>gabba&#45;&gt;gabba</title>
<path fill="none" stroke="black" d="M155.28,-557.26C166.81,-557.63 176.39,-554.88 176.39,-549 176.39,-545.24 172.46,-542.75 166.6,-541.55"/>
<polygon fill="black" stroke="black" points="167.01,-538.07 156.79,-540.84 166.51,-545.05 167.01,-538.07"/>
<text text-anchor="middle" x="179.76" y="-543.95" font-family="Times,serif" font-size="14.00">3</text>
</g>
<!-- we -->
<g id="node4" class="node">
<title>we</title>
<ellipse fill="none" stroke="black" cx="94.46" cy="-460.5" rx="27" ry="18"/>
<text text-anchor="middle" x="94.46" y="-455.45" font-family="Times,serif" font-size="14.00">we</text>
</g>
<!-- gabba&#45;&gt;we -->
<g id="edge3" class="edge">
<title>gabba&#45;&gt;we</title>
<path fill="none" stroke="black" d="M119.34,-530.91C115.06,-518.99 109.27,-502.81 104.34,-489.08"/>
<polygon fill="black" stroke="black" points="107.65,-487.92 100.98,-479.68 101.06,-490.28 107.65,-487.92"/>
<text text-anchor="middle" x="116.11" y="-499.7" font-family="Times,serif" font-size="14.00">1</text>
</g>
<!-- hey -->
<g id="node5" class="node">
<title>hey</title>
<ellipse fill="none" stroke="black" cx="155.46" cy="-637.5" rx="27" ry="18"/>
<text text-anchor="middle" x="155.46" y="-632.45" font-family="Times,serif" font-size="14.00">hey</text>
</g>
<!-- gabba&#45;&gt;hey -->
<g id="edge4" class="edge">
<title>gabba&#45;&gt;hey</title>
<path fill="none" stroke="black" d="M131.33,-566.92C135.47,-578.87 141.12,-595.15 145.91,-608.95"/>
<polygon fill="black" stroke="black" points="142.6,-610.09 149.18,-618.39 149.21,-607.8 142.6,-610.09"/>
<text text-anchor="middle" x="146.52" y="-588.2" font-family="Times,serif" font-size="14.00">2</text>
</g>
<!-- accept -->
<g id="node6" class="node">
<title>accept</title>
<ellipse fill="none" stroke="black" cx="34.46" cy="-372" rx="34.46" ry="18"/>
<text text-anchor="middle" x="34.46" y="-366.95" font-family="Times,serif" font-size="14.00">accept</text>
</g>
<!-- we&#45;&gt;accept -->
<g id="edge13" class="edge">
<title>we&#45;&gt;accept</title>
<path fill="none" stroke="black" d="M83.46,-443.63C74.69,-430.99 62.24,-413.05 52.08,-398.41"/>
<polygon fill="black" stroke="black" points="55.24,-396.82 46.67,-390.6 49.49,-400.81 55.24,-396.82"/>
<text text-anchor="middle" x="73.21" y="-411.2" font-family="Times,serif" font-size="14.00">2</text>
</g>
<!-- hey&#45;&gt;gabba -->
<g id="edge9" class="edge">
<title>hey&#45;&gt;gabba</title>
<path fill="none" stroke="black" d="M141.32,-622.02C136.43,-616.12 131.5,-608.95 128.71,-601.5 126.04,-594.34 124.78,-586.23 124.3,-578.61"/>
<polygon fill="black" stroke="black" points="127.8,-578.66 124.11,-568.73 120.8,-578.8 127.8,-578.66"/>
<text text-anchor="middle" x="132.09" y="-588.2" font-family="Times,serif" font-size="14.00">1</text>
</g>
<!-- hey&#45;&gt;hey -->
<g id="edge10" class="edge">
<title>hey&#45;&gt;hey</title>
<path fill="none" stroke="black" d="M179.99,-645.67C190.97,-646.45 200.46,-643.72 200.46,-637.5 200.46,-633.61 196.75,-631.09 191.29,-629.93"/>
<polygon fill="black" stroke="black" points="191.68,-626.45 181.51,-629.41 191.31,-633.44 191.68,-626.45"/>
<text text-anchor="middle" x="203.84" y="-632.45" font-family="Times,serif" font-size="14.00">1</text>
</g>
<!-- oh -->
<g id="node9" class="node">
<title>oh</title>
<ellipse fill="none" stroke="black" cx="228.46" cy="-549" rx="27" ry="18"/>
<text text-anchor="middle" x="228.46" y="-543.95" font-family="Times,serif" font-size="14.00">oh</text>
</g>
<!-- hey&#45;&gt;oh -->
<g id="edge11" class="edge">
<title>hey&#45;&gt;oh</title>
<path fill="none" stroke="black" d="M168.18,-621.43C179.31,-608.24 195.67,-588.86 208.54,-573.61"/>
<polygon fill="black" stroke="black" points="210.9,-576.24 214.67,-566.34 205.55,-571.73 210.9,-576.24"/>
<text text-anchor="middle" x="201.88" y="-588.2" font-family="Times,serif" font-size="14.00">1</text>
</g>
<!-- you -->
<g id="node7" class="node">
<title>you</title>
<ellipse fill="none" stroke="black" cx="86.46" cy="-283.5" rx="27" ry="18"/>
<text text-anchor="middle" x="86.46" y="-278.45" font-family="Times,serif" font-size="14.00">you</text>
</g>
<!-- accept&#45;&gt;you -->
<g id="edge5" class="edge">
<title>accept&#45;&gt;you</title>
<path fill="none" stroke="black" d="M44.49,-354.32C51.99,-341.84 62.4,-324.53 70.97,-310.27"/>
<polygon fill="black" stroke="black" points="73.89,-312.21 76.04,-301.84 67.89,-308.61 73.89,-312.21"/>
<text text-anchor="middle" x="68.49" y="-322.7" font-family="Times,serif" font-size="14.00">2</text>
</g>
<!-- you&#45;&gt;we -->
<g id="edge6" class="edge">
<title>you&#45;&gt;we</title>
<path fill="none" stroke="black" d="M87.25,-301.85C88.63,-331.94 91.47,-394.08 93.15,-430.72"/>
<polygon fill="black" stroke="black" points="89.64,-430.74 93.6,-440.57 96.64,-430.42 89.64,-430.74"/>
<text text-anchor="middle" x="94.63" y="-366.95" font-family="Times,serif" font-size="14.00">1</text>
</g>
<!-- one -->
<g id="node8" class="node">
<title>one</title>
<ellipse fill="none" stroke="black" cx="92.46" cy="-195" rx="27" ry="18"/>
<text text-anchor="middle" x="92.46" y="-189.95" font-family="Times,serif" font-size="14.00">one</text>
</g>
<!-- you&#45;&gt;one -->
<g id="edge7" class="edge">
<title>you&#45;&gt;one</title>
<path fill="none" stroke="black" d="M87.65,-265.41C88.46,-253.76 89.55,-238.05 90.48,-224.52"/>
<polygon fill="black" stroke="black" points="93.95,-225.08 91.15,-214.86 86.97,-224.59 93.95,-225.08"/>
<text text-anchor="middle" x="93.37" y="-234.2" font-family="Times,serif" font-size="14.00">1</text>
</g>
<!-- of -->
<g id="node11" class="node">
<title>of</title>
<ellipse fill="none" stroke="black" cx="94.46" cy="-106.5" rx="27" ry="18"/>
<text text-anchor="middle" x="94.46" y="-101.45" font-family="Times,serif" font-size="14.00">of</text>
</g>
<!-- one&#45;&gt;of -->
<g id="edge14" class="edge">
<title>one&#45;&gt;of</title>
<path fill="none" stroke="black" d="M92.86,-176.91C93.13,-165.26 93.49,-149.55 93.8,-136.02"/>
<polygon fill="black" stroke="black" points="97.29,-136.44 94.03,-126.36 90.3,-136.28 97.29,-136.44"/>
<text text-anchor="middle" x="97.02" y="-145.7" font-family="Times,serif" font-size="14.00">1</text>
</g>
<!-- oh&#45;&gt;let -->
<g id="edge8" class="edge">
<title>oh&#45;&gt;let</title>
<path fill="none" stroke="black" d="M228.46,-530.91C228.46,-519.26 228.46,-503.55 228.46,-490.02"/>
<polygon fill="black" stroke="black" points="231.96,-490.36 228.46,-480.36 224.96,-490.36 231.96,-490.36"/>
<text text-anchor="middle" x="231.84" y="-499.7" font-family="Times,serif" font-size="14.00">1</text>
</g>
<!-- us -->
<g id="node12" class="node">
<title>us</title>
<ellipse fill="none" stroke="black" cx="122.46" cy="-18" rx="27" ry="18"/>
<text text-anchor="middle" x="122.46" y="-12.95" font-family="Times,serif" font-size="14.00">us</text>
</g>
<!-- of&#45;&gt;us -->
<g id="edge15" class="edge">
<title>of&#45;&gt;us</title>
<path fill="none" stroke="black" d="M99.99,-88.41C103.83,-76.56 109.02,-60.52 113.45,-46.84"/>
<polygon fill="black" stroke="black" points="116.73,-48.09 116.48,-37.49 110.07,-45.93 116.73,-48.09"/>
<text text-anchor="middle" x="114.34" y="-57.2" font-family="Times,serif" font-size="14.00">1</text>
</g>
<!-- us&#45;&gt;gabba -->
<g id="edge16" class="edge">
<title>us&#45;&gt;gabba</title>
<path fill="none" stroke="black" d="M130.86,-35.43C138.78,-52.49 149.46,-80.17 149.46,-105.5 149.46,-461.5 149.46,-461.5 149.46,-461.5 149.46,-481.76 143.27,-503.75 137.18,-520.49"/>
<polygon fill="black" stroke="black" points="133.95,-519.15 133.6,-529.74 140.47,-521.68 133.95,-519.15"/>
<text text-anchor="middle" x="152.84" y="-278.45" font-family="Times,serif" font-size="14.00">1</text>
</g>
</g>
</svg>
