<?xml version="1.0" encoding="UTF-8" standalone="no"?>
<!DOCTYPE svg PUBLIC "-//W3C//DTD SVG 1.1//EN"
 "http://www.w3.org/Graphics/SVG/1.1/DTD/svg11.dtd">
<!-- Generated by graphviz version 2.43.0 (0)
 -->
<!-- Title: %3 Pages: 1 -->
<svg width="728pt" height="153pt"
 viewBox="0.00 0.00 728.00 153.00" xmlns="http://www.w3.org/2000/svg" xmlns:xlink="http://www.w3.org/1999/xlink">
<g id="graph0" class="graph" transform="scale(1 1) rotate(0) translate(4 149)">
<title>%3</title>
<polygon fill="white" stroke="transparent" points="-4,4 -4,-149 724,-149 724,4 -4,4"/>
<!-- T -->
<g id="node1" class="node">
<title>T</title>
<polygon fill="none" stroke="black" points="46,-108.5 46,-144.5 117,-144.5 117,-108.5 46,-108.5"/>
<text text-anchor="middle" x="59" y="-122.8" font-family="Times,serif" font-size="14.00">Ø</text>
<polyline fill="none" stroke="black" points="72,-108.5 72,-144.5 "/>
<text text-anchor="middle" x="84.5" y="-122.8" font-family="Times,serif" font-size="14.00">T</text>
<polyline fill="none" stroke="black" points="97,-108.5 97,-144.5 "/>
<text text-anchor="middle" x="107" y="-122.8" font-family="Times,serif" font-size="14.00"> </text>
<text text-anchor="middle" x="23" y="-96.8" font-family="Times,serif" font-size="14.00">liste.tete</text>
</g>
<!-- A -->
<g id="node2" class="node">
<title>A</title>
<polygon fill="none" stroke="black" points="153,-90.5 153,-126.5 216,-126.5 216,-90.5 153,-90.5"/>
<text text-anchor="middle" x="163" y="-104.8" font-family="Times,serif" font-size="14.00"> </text>
<polyline fill="none" stroke="black" points="173,-90.5 173,-126.5 "/>
<text text-anchor="middle" x="184.5" y="-104.8" font-family="Times,serif" font-size="14.00">3</text>
<polyline fill="none" stroke="black" points="196,-90.5 196,-126.5 "/>
<text text-anchor="middle" x="206" y="-104.8" font-family="Times,serif" font-size="14.00"> </text>
</g>
<!-- T&#45;&gt;A -->
<g id="edge1" class="edge">
<title>T:c&#45;&gt;A:n</title>
<path fill="none" stroke="black" d="M114.88,-129.64C131.14,-136.22 169.53,-149.87 181.12,-137.36"/>
<ellipse fill="black" stroke="black" cx="111.18" cy="-128.06" rx="4" ry="4"/>
<polygon fill="black" stroke="black" points="184.57,-138.09 184.5,-127.5 177.95,-135.83 184.57,-138.09"/>
</g>
<!-- A&#45;&gt;T -->
<g id="edge2" class="edge">
<title>A:c&#45;&gt;T:s</title>
<path fill="none" stroke="black" d="M155.02,-105.32C138.52,-98.64 99.52,-84.78 87.85,-97.59"/>
<ellipse fill="black" stroke="black" cx="158.82" cy="-106.94" rx="4" ry="4"/>
<polygon fill="black" stroke="black" points="84.39,-96.91 84.5,-107.5 91.02,-99.15 84.39,-96.91"/>
</g>
<!-- B -->
<g id="node3" class="node">
<title>B</title>
<polygon fill="none" stroke="black" points="252,-72.5 252,-108.5 315,-108.5 315,-72.5 252,-72.5"/>
<text text-anchor="middle" x="262" y="-86.8" font-family="Times,serif" font-size="14.00"> </text>
<polyline fill="none" stroke="black" points="272,-72.5 272,-108.5 "/>
<text text-anchor="middle" x="283.5" y="-86.8" font-family="Times,serif" font-size="14.00">1</text>
<polyline fill="none" stroke="black" points="295,-72.5 295,-108.5 "/>
<text text-anchor="middle" x="305" y="-86.8" font-family="Times,serif" font-size="14.00"> </text>
</g>
<!-- A&#45;&gt;B -->
<g id="edge3" class="edge">
<title>A:c&#45;&gt;B:n</title>
<path fill="none" stroke="black" d="M213.88,-111.64C230.14,-118.22 268.53,-131.87 280.12,-119.36"/>
<ellipse fill="black" stroke="black" cx="210.18" cy="-110.06" rx="4" ry="4"/>
<polygon fill="black" stroke="black" points="283.57,-120.09 283.5,-109.5 276.95,-117.83 283.57,-120.09"/>
</g>
<!-- B&#45;&gt;A -->
<g id="edge4" class="edge">
<title>B:c&#45;&gt;A:s</title>
<path fill="none" stroke="black" d="M254.12,-87.36C237.82,-80.77 199.32,-67.07 187.81,-79.72"/>
<ellipse fill="black" stroke="black" cx="257.82" cy="-88.94" rx="4" ry="4"/>
<polygon fill="black" stroke="black" points="184.39,-78.91 184.5,-89.5 191.02,-81.15 184.39,-78.91"/>
</g>
<!-- C -->
<g id="node4" class="node">
<title>C</title>
<polygon fill="none" stroke="black" points="351,-54.5 351,-90.5 414,-90.5 414,-54.5 351,-54.5"/>
<text text-anchor="middle" x="361" y="-68.8" font-family="Times,serif" font-size="14.00"> </text>
<polyline fill="none" stroke="black" points="371,-54.5 371,-90.5 "/>
<text text-anchor="middle" x="382.5" y="-68.8" font-family="Times,serif" font-size="14.00">4</text>
<polyline fill="none" stroke="black" points="394,-54.5 394,-90.5 "/>
<text text-anchor="middle" x="404" y="-68.8" font-family="Times,serif" font-size="14.00"> </text>
</g>
<!-- B&#45;&gt;C -->
<g id="edge5" class="edge">
<title>B:c&#45;&gt;C:n</title>
<path fill="none" stroke="black" d="M312.88,-93.64C329.14,-100.22 367.53,-113.87 379.12,-101.36"/>
<ellipse fill="black" stroke="black" cx="309.18" cy="-92.06" rx="4" ry="4"/>
<polygon fill="black" stroke="black" points="382.57,-102.09 382.5,-91.5 375.95,-99.83 382.57,-102.09"/>
</g>
<!-- C&#45;&gt;B -->
<g id="edge6" class="edge">
<title>C:c&#45;&gt;B:s</title>
<path fill="none" stroke="black" d="M353.12,-69.36C336.82,-62.77 298.32,-49.07 286.81,-61.72"/>
<ellipse fill="black" stroke="black" cx="356.82" cy="-70.94" rx="4" ry="4"/>
<polygon fill="black" stroke="black" points="283.39,-60.91 283.5,-71.5 290.02,-63.15 283.39,-60.91"/>
</g>
<!-- D -->
<g id="node5" class="node">
<title>D</title>
<polygon fill="none" stroke="black" points="450,-36.5 450,-72.5 513,-72.5 513,-36.5 450,-36.5"/>
<text text-anchor="middle" x="460" y="-50.8" font-family="Times,serif" font-size="14.00"> </text>
<polyline fill="none" stroke="black" points="470,-36.5 470,-72.5 "/>
<text text-anchor="middle" x="481.5" y="-50.8" font-family="Times,serif" font-size="14.00">2</text>
<polyline fill="none" stroke="black" points="493,-36.5 493,-72.5 "/>
<text text-anchor="middle" x="503" y="-50.8" font-family="Times,serif" font-size="14.00"> </text>
</g>
<!-- C&#45;&gt;D -->
<g id="edge7" class="edge">
<title>C:c&#45;&gt;D:n</title>
<path fill="none" stroke="black" d="M411.88,-75.64C428.14,-82.22 466.53,-95.87 478.12,-83.36"/>
<ellipse fill="black" stroke="black" cx="408.18" cy="-74.06" rx="4" ry="4"/>
<polygon fill="black" stroke="black" points="481.57,-84.09 481.5,-73.5 474.95,-81.83 481.57,-84.09"/>
</g>
<!-- D&#45;&gt;C -->
<g id="edge8" class="edge">
<title>D:c&#45;&gt;C:s</title>
<path fill="none" stroke="black" d="M452.12,-51.36C435.82,-44.77 397.32,-31.07 385.81,-43.72"/>
<ellipse fill="black" stroke="black" cx="455.82" cy="-52.94" rx="4" ry="4"/>
<polygon fill="black" stroke="black" points="382.39,-42.91 382.5,-53.5 389.02,-45.15 382.39,-42.91"/>
</g>
<!-- E -->
<g id="node6" class="node">
<title>E</title>
<polygon fill="none" stroke="black" points="549,-18.5 549,-54.5 612,-54.5 612,-18.5 549,-18.5"/>
<text text-anchor="middle" x="559" y="-32.8" font-family="Times,serif" font-size="14.00"> </text>
<polyline fill="none" stroke="black" points="569,-18.5 569,-54.5 "/>
<text text-anchor="middle" x="580.5" y="-32.8" font-family="Times,serif" font-size="14.00">7</text>
<polyline fill="none" stroke="black" points="592,-18.5 592,-54.5 "/>
<text text-anchor="middle" x="602" y="-32.8" font-family="Times,serif" font-size="14.00"> </text>
</g>
<!-- D&#45;&gt;E -->
<g id="edge9" class="edge">
<title>D:c&#45;&gt;E:n</title>
<path fill="none" stroke="black" d="M510.88,-57.64C527.14,-64.22 565.53,-77.87 577.12,-65.36"/>
<ellipse fill="black" stroke="black" cx="507.18" cy="-56.06" rx="4" ry="4"/>
<polygon fill="black" stroke="black" points="580.57,-66.09 580.5,-55.5 573.95,-63.83 580.57,-66.09"/>
</g>
<!-- E&#45;&gt;D -->
<g id="edge10" class="edge">
<title>E:c&#45;&gt;D:s</title>
<path fill="none" stroke="black" d="M551.12,-33.36C534.82,-26.77 496.32,-13.07 484.81,-25.72"/>
<ellipse fill="black" stroke="black" cx="554.82" cy="-34.94" rx="4" ry="4"/>
<polygon fill="black" stroke="black" points="481.39,-24.91 481.5,-35.5 488.02,-27.15 481.39,-24.91"/>
</g>
<!-- Q -->
<g id="node7" class="node">
<title>Q</title>
<polygon fill="none" stroke="black" points="648,-0.5 648,-36.5 720,-36.5 720,-0.5 648,-0.5"/>
<text text-anchor="middle" x="658" y="-14.8" font-family="Times,serif" font-size="14.00"> </text>
<polyline fill="none" stroke="black" points="668,-0.5 668,-36.5 "/>
<text text-anchor="middle" x="681" y="-14.8" font-family="Times,serif" font-size="14.00">Q</text>
<polyline fill="none" stroke="black" points="694,-0.5 694,-36.5 "/>
<text text-anchor="middle" x="707" y="-14.8" font-family="Times,serif" font-size="14.00">Ø</text>
</g>
<!-- E&#45;&gt;Q -->
<g id="edge11" class="edge">
<title>E:c&#45;&gt;Q:n</title>
<path fill="none" stroke="black" d="M610.03,-39.7C626.76,-46.47 666.46,-60.57 677.88,-47.19"/>
<ellipse fill="black" stroke="black" cx="606.18" cy="-38.06" rx="4" ry="4"/>
<polygon fill="black" stroke="black" points="681.27,-48.09 681,-37.5 674.6,-45.95 681.27,-48.09"/>
<text text-anchor="middle" x="684.73" y="-63.57" font-family="Times,serif" font-size="14.00">liste.queue</text>
</g>
<!-- Q&#45;&gt;E -->
<g id="edge12" class="edge">
<title>Q:c&#45;&gt;E:s</title>
<path fill="none" stroke="black" d="M650.57,-15.34C634.17,-8.7 595.42,5.08 583.83,-7.65"/>
<ellipse fill="black" stroke="black" cx="654.32" cy="-16.94" rx="4" ry="4"/>
<polygon fill="black" stroke="black" points="580.39,-6.91 580.5,-17.5 587.02,-9.15 580.39,-6.91"/>
</g>
</g>
</svg>
